<svg width="76" height="75" viewBox="0 0 76 75" fill="none" xmlns="http://www.w3.org/2000/svg">
<path fill-rule="evenodd" clip-rule="evenodd" d="M49.6345 7.39682H28.3245V36.2057H49.6345V7.39682ZM26.9277 6V37.6025H51.0313V6H26.9277Z" fill="black"/>
<path fill-rule="evenodd" clip-rule="evenodd" d="M45.349 12.2174H32.6092V31.3849H45.349V12.2174ZM31.2124 10.8206V32.7817H46.7458V10.8206H31.2124Z" fill="black"/>
<path fill-rule="evenodd" clip-rule="evenodd" d="M50.8311 8.11271L46.7157 12.2281L45.728 11.2404L49.8434 7.12501L50.8311 8.11271Z" fill="black"/>
<path fill-rule="evenodd" clip-rule="evenodd" d="M27.968 6.94872L32.0834 11.0641L31.0957 12.0518L26.9803 7.93641L27.968 6.94872Z" fill="black"/>
<path fill-rule="evenodd" clip-rule="evenodd" d="M46.5925 31.393L50.7079 35.5084L49.7202 36.4961L45.6048 32.3807L46.5925 31.393Z" fill="black"/>
<path fill-rule="evenodd" clip-rule="evenodd" d="M32.2071 32.557L28.0917 36.6724L27.104 35.6847L31.2194 31.5693L32.2071 32.557Z" fill="black"/>
</svg>
