<svg width="76" height="75" viewBox="0 0 76 75" fill="none" xmlns="http://www.w3.org/2000/svg">
<path fill-rule="evenodd" clip-rule="evenodd" d="M29.3064 12.0491L27.4517 4.11046L28.8118 3.79266L30.9305 12.8606L30.7999 12.8911L31.9226 23.5269H49.1064V24.9237H46.1796V40.3884H44.7828V24.9237H34.3012L31.2335 40.2626L29.8638 39.9886L32.8768 24.9237H32.07L32.0749 24.9705L30.6858 25.1171L29.3064 12.0491Z" fill="black"/>
<path fill-rule="evenodd" clip-rule="evenodd" d="M32.2902 12.1299C31.5763 7.95124 29.0887 5.00587 27.9813 4.08937L28.7234 3.19262C30.006 4.25404 32.6689 7.4341 33.4375 11.9339C34.2086 16.4477 32.592 19.8575 31.6178 21.0587L30.7138 20.3255C31.4893 19.3693 33.0016 16.2944 32.2902 12.1299Z" fill="black"/>
</svg>
