<svg width="76" height="75" viewBox="0 0 76 75" fill="none" xmlns="http://www.w3.org/2000/svg">
<path fill-rule="evenodd" clip-rule="evenodd" d="M24.9784 14.8215V1H26.383V14.8215H24.9784Z" fill="black"/>
<path fill-rule="evenodd" clip-rule="evenodd" d="M53.5017 18.0395C53.5017 17.0521 52.7156 16.2517 51.746 16.2517H24.0665C23.0969 16.2517 22.3108 17.0521 22.3108 18.0395V36.7821C22.3108 37.7694 23.0969 38.5698 24.0665 38.5698H51.746C52.7156 38.5698 53.5017 37.7694 53.5017 36.7821V18.0395ZM22.662 14.8215C21.6923 14.8215 20.9062 15.6219 20.9062 16.6093V38.2123C20.9062 39.1996 21.6923 40 22.662 40H53.1505C54.1202 40 54.9063 39.1996 54.9063 38.2123V16.6093C54.9063 15.6219 54.1202 14.8215 53.1505 14.8215H22.662Z" fill="black"/>
<path fill-rule="evenodd" clip-rule="evenodd" d="M49.7851 19.0161H25.9619C25.4448 19.0161 25.0255 19.443 25.0255 19.9696V33.1702C25.0255 33.6968 25.4448 34.1237 25.9619 34.1237H49.7851C50.3022 34.1237 50.7214 33.6968 50.7214 33.1702V19.9696C50.7214 19.443 50.3022 19.0161 49.7851 19.0161ZM25.9619 17.5859C24.669 17.5859 23.621 18.6531 23.621 19.9696V33.1702C23.621 34.4867 24.669 35.5539 25.9619 35.5539H49.7851C51.0779 35.5539 52.126 34.4867 52.126 33.1702V19.9696C52.126 18.6531 51.0779 17.5859 49.7851 17.5859H25.9619Z" fill="black"/>
<path d="M49.4113 36.936C49.4113 37.6993 48.8036 38.3181 48.0539 38.3181C47.3043 38.3181 46.6965 37.6993 46.6965 36.936C46.6965 36.1726 47.3043 35.5538 48.0539 35.5538C48.8036 35.5538 49.4113 36.1726 49.4113 36.936Z" fill="black"/>
</svg>
