<svg width="76" height="75" viewBox="0 0 76 75" fill="none" xmlns="http://www.w3.org/2000/svg">
<path fill-rule="evenodd" clip-rule="evenodd" d="M37.1357 21.9985C29.7567 22.7026 24 29.0603 24 36.7731H24.8021L35.0547 36.7735C35.0548 38.6262 36.671 40 38.5002 40C40.3294 40 41.9456 38.6262 41.9457 36.7735H52.1979L53 36.7731C53 28.6725 46.6499 22.0669 38.7398 21.9358V0H37.1357V21.9985ZM51.3008 35.1586C50.5238 28.6064 45.078 23.5487 38.5 23.5487C31.922 23.5487 26.4762 28.6064 25.6992 35.1586H51.3008ZM40.3416 36.7735H36.6588C36.659 37.5929 37.4097 38.3851 38.5002 38.3851C39.5907 38.3851 40.3414 37.5929 40.3416 36.7735Z" fill="black"/>
</svg>
