<svg width="76" height="75" viewBox="0 0 76 75" fill="none" xmlns="http://www.w3.org/2000/svg">
<path fill-rule="evenodd" clip-rule="evenodd" d="M38.2882 22.7245L46.7902 12L47.8585 12.8624L40.0401 22.7245H41.4055L41.2476 22.5105L49.1183 16.5939L49.9355 17.701L43.2529 22.7245H48.9711V23.0047H49.6551C49.6551 27.0116 48.9685 30.785 46.7048 33.5587C44.4186 36.36 40.6443 38 34.7953 38C28.6849 38 24.8984 36.3659 22.6745 33.5501C20.4779 30.7689 19.9355 26.9881 19.9355 23.0047H20.6196V22.7245H38.2882ZM21.3191 24.105C21.4197 27.553 22.0313 30.5209 23.7443 32.6897C25.6095 35.0513 28.9109 36.6195 34.7953 36.6195C40.396 36.6195 43.7097 35.0572 45.6489 32.6811C47.4234 30.5067 48.1463 27.5343 48.2681 24.105H21.3191Z" fill="black"/>
</svg>
