<svg width="76" height="75" viewBox="0 0 76 75" fill="none" xmlns="http://www.w3.org/2000/svg">
<path fill-rule="evenodd" clip-rule="evenodd" d="M41.3526 22.7245L49.8547 12L50.9229 12.8624L43.1046 22.7245H44.47L44.312 22.5105L52.1828 16.5939L53 17.701L46.3174 22.7245H52.0356V23.0047H52.7196C52.7196 27.0116 52.033 30.785 49.7693 33.5587C47.483 36.36 43.7088 38 37.8598 38C31.7493 38 27.9628 36.3659 25.7389 33.5501C23.5423 30.7689 23 26.9881 23 23.0047H23.684V22.7245H41.3526ZM24.3835 24.105C24.4842 27.553 25.0958 30.5209 26.8087 32.6897C28.6739 35.0513 31.9754 36.6195 37.8598 36.6195C43.4605 36.6195 46.7741 35.0572 48.7133 32.6811C50.4879 30.5067 51.2107 27.5343 51.3325 24.105H24.3835Z" fill="black"/>
</svg>
