<svg width="76" height="75" viewBox="0 0 76 75" fill="none" xmlns="http://www.w3.org/2000/svg">
<path fill-rule="evenodd" clip-rule="evenodd" d="M25.0562 37.1303L33.2017 26.2763L34.2923 27.146L26.1468 38L25.0562 37.1303Z" fill="black"/>
<path fill-rule="evenodd" clip-rule="evenodd" d="M36.7647 21.4686L39.4055 17.9496L40.4962 18.8193L37.8553 22.3383L36.7647 21.4686Z" fill="black"/>
<path fill-rule="evenodd" clip-rule="evenodd" d="M42.9415 13.7603L44.9329 11.1068L46.0235 11.9765L44.0322 14.63L42.9415 13.7603Z" fill="black"/>
<path fill-rule="evenodd" clip-rule="evenodd" d="M48.6773 5.42136H44.5406V10.8699H48.6773V5.42136ZM43.1618 4V12.2913H50.0562V4H43.1618Z" fill="black"/>
<path fill-rule="evenodd" clip-rule="evenodd" d="M44.0662 15.1114L40.247 13.299L38.4888 17.2359L42.308 19.0483L44.0662 15.1114ZM39.5711 11.4135L36.6596 17.9326L42.9839 20.9338L45.8953 14.4146L39.5711 11.4135Z" fill="black"/>
<path fill-rule="evenodd" clip-rule="evenodd" d="M38.1406 23.9239L35.452 20.5918L32.2195 23.3632L34.9081 26.6954L38.1406 23.9239ZM35.6304 18.5901L30.2776 23.1793L34.7297 28.697L40.0825 24.1078L35.6304 18.5901Z" fill="black"/>
</svg>
