<svg width="76" height="75" viewBox="0 0 76 75" fill="none" xmlns="http://www.w3.org/2000/svg">
<g clip-path="url(#clip0)">
<path fill-rule="evenodd" clip-rule="evenodd" d="M37.5568 4.68834V1H38.9533V4.37938L41.6452 1.64421L42.6327 2.64759L39.5548 5.77498H44.8721V7.19398H40.0228L43.073 10.2933L42.0855 11.2966L38.7761 7.93406V21.2377H51.6665V40H24.6665V21.2377H37.3796V7.9852L34.1202 11.2969L33.1327 10.2936L36.1832 7.19398H31.4608V5.77498H36.6512L33.573 2.6473L34.5605 1.64392L37.5568 4.68834ZM37.3796 22.6567H26.0631V27.1929H50.27V22.6567H38.7761V23.186H37.3796V22.6567ZM26.0631 28.8507V33.3869H50.27V28.8507H26.0631ZM26.0631 35.0448V38.581H50.27V35.0448H26.0631Z" fill="black"/>
</g>
<defs>
<clipPath id="clip0">
<rect width="76" height="75" fill="white"/>
</clipPath>
</defs>
</svg>
