<svg width="76" height="75" viewBox="0 0 76 75" fill="none" xmlns="http://www.w3.org/2000/svg">
<path fill-rule="evenodd" clip-rule="evenodd" d="M49.6007 35.6909H27.4579V37.5818H49.6007V35.6909ZM26.0293 34.2727V39H51.0293V34.2727H26.0293Z" fill="black"/>
<path fill-rule="evenodd" clip-rule="evenodd" d="M28.8864 8.74545H36.2674V37.8182H34.8388V10.1636H30.315V37.8182H28.8864V8.74545Z" fill="black"/>
<path fill-rule="evenodd" clip-rule="evenodd" d="M40.7912 8.74545H48.1722V37.8182H46.7436V10.1636H42.2198V37.8182H40.7912V8.74545Z" fill="black"/>
<path fill-rule="evenodd" clip-rule="evenodd" d="M31.9817 10.6364V4.72727H33.4102V10.6364H31.9817Z" fill="black"/>
<path fill-rule="evenodd" clip-rule="evenodd" d="M43.8864 10.6364V4.72727H45.315V10.6364H43.8864Z" fill="black"/>
<path d="M32.5769 0L35.1544 3.54545H29.9995L32.5769 0Z" fill="black"/>
<path fill-rule="evenodd" clip-rule="evenodd" d="M32.5769 0L29.9995 3.54545H35.1544L32.5769 0Z" fill="black"/>
<path fill-rule="evenodd" clip-rule="evenodd" d="M44.4817 0L41.9042 3.54545H47.0591L44.4817 0Z" fill="black"/>
<path fill-rule="evenodd" clip-rule="evenodd" d="M31.7104 3.79113C31.9009 3.91717 32.2052 4.01818 32.5769 4.01818C32.9487 4.01818 33.2529 3.91717 33.4434 3.79113C33.6388 3.66178 33.6483 3.56095 33.6483 3.54545H35.0769C35.0769 4.18266 34.6867 4.67274 34.2358 4.97113C33.78 5.27281 33.1914 5.43636 32.5769 5.43636C31.9625 5.43636 31.3739 5.27281 30.918 4.97113C30.4672 4.67274 30.0769 4.18266 30.0769 3.54545H31.5055C31.5055 3.56095 31.515 3.66178 31.7104 3.79113Z" fill="black"/>
<path fill-rule="evenodd" clip-rule="evenodd" d="M43.6152 3.79113C43.8057 3.91717 44.1099 4.01818 44.4817 4.01818C44.8534 4.01818 45.1577 3.91717 45.3482 3.79113C45.5436 3.66178 45.5531 3.56095 45.5531 3.54545H46.9817C46.9817 4.18266 46.5914 4.67274 46.1406 4.97113C45.6847 5.27281 45.0961 5.43636 44.4817 5.43636C43.8672 5.43636 43.2786 5.27281 42.8228 4.97113C42.3719 4.67274 41.9817 4.18266 41.9817 3.54545H43.4102C43.4102 3.56095 43.4198 3.66178 43.6152 3.79113Z" fill="black"/>
</svg>
