<svg width="76" height="75" viewBox="0 0 76 75" fill="none" xmlns="http://www.w3.org/2000/svg">
<path fill-rule="evenodd" clip-rule="evenodd" d="M35.6698 3.67647V0H37.2197V3.67647H35.6698ZM33.1944 5.08422L30.6357 2.48456L31.7339 1.37754L34.2926 3.97719L33.1944 5.08422ZM38.502 3.97719L41.0607 1.37754L42.1589 2.48456L39.6001 5.08422L38.502 3.97719ZM33.3086 7.21197H29.6901V5.64335H33.3086V7.21197ZM39.4859 5.64335H43.1045V7.21197H39.4859V5.64335ZM33.4337 10.6408L34.6985 9.35583L33.6004 8.2488L31.0417 10.8485L31.8397 11.6529L31.392 12.5849L32.7484 13.2522L32.6867 13.2737L33.1927 14.7564L35.6626 13.8929L35.1566 12.4103L32.8043 13.2326L33.9315 10.8857L33.4337 10.6408ZM39.1942 8.2488L41.7529 10.8485L40.6548 11.9555L38.0961 9.35583L39.1942 8.2488ZM35.6701 16.2627V9.80392H37.22V21.2745H42.0297L44.2553 16.6335L45.6497 17.3184L43.7525 21.2745H46.3287L42.3793 40H31.4757L27.5263 21.2745H31.8539L30.8761 17.6349L32.3717 17.2233L33.4601 21.2745H35.6701V16.485L35.0749 17.7144L32.7276 16.5505L33.4095 15.1419L35.6701 16.2627ZM35.6701 22.8431H33.8816L36.1832 31.4101L34.6876 31.8217L32.2753 22.8431H29.442L32.7298 38.4314H41.1252L44.413 22.8431H43.0003L36.1401 37.1488L34.7457 36.4639L41.2775 22.8431H37.22V29.4118H35.6701V22.8431ZM45.0503 12.4678L44.5002 10.434L45.9951 10.0198L46.6153 12.3126L45.2416 12.6932L44.5219 13.9688L42.4876 12.7931L43.2562 11.4309L45.0503 12.4678ZM29.7505 13.2439L28.9007 10.7345L30.3669 10.2259L31.2167 12.7353L29.7505 13.2439ZM46.9566 12.7277L48.1138 10.6609L49.4623 11.4342L48.4293 13.2792L50.5878 12.6765L51 14.1887L48.9957 14.7483L50.7976 15.7897L50.0289 17.1518L47.9947 15.9762L48.7122 14.7046L48.3582 13.4061L48.3051 13.501L46.9566 12.7277ZM28.358 14.7865L26.0468 13.6406L26.7287 12.2319L29.0761 13.3958L28.412 14.7677L28.4699 14.7475L28.9759 16.2301L26.5061 17.0936L26 15.6109L28.358 14.7865ZM44.6434 15.6273L42.3868 16.2574L41.9745 14.7453L44.2312 14.1152L44.6434 15.6273ZM48.0264 16.3067L48.6466 18.5994L47.1517 19.0136L46.5315 16.7208L48.0264 16.3067ZM30.4275 17.3557L29.282 19.7406L27.888 19.0548L29.0335 16.6699L30.4275 17.3557Z" fill="black"/>
</svg>
