<svg width="76" height="75" viewBox="0 0 76 75" fill="none" xmlns="http://www.w3.org/2000/svg">
<path fill-rule="evenodd" clip-rule="evenodd" d="M23.6605 13.5079V29.4961H51.6079V13.5079H23.6605ZM22.2394 30.9068H53.029V12.0972H22.2394V30.9068Z" fill="black"/>
<path fill-rule="evenodd" clip-rule="evenodd" d="M26.6916 7.43443C26.6916 6.91502 26.2674 6.49395 25.7442 6.49395C25.221 6.49395 24.7968 6.91502 24.7968 7.43443C24.7968 7.95384 25.221 8.37491 25.7442 8.37491C26.2674 8.37491 26.6916 7.95384 26.6916 7.43443ZM28.1126 7.43443C28.1126 6.1359 27.0523 5.08323 25.7442 5.08323C24.4362 5.08323 23.3758 6.1359 23.3758 7.43443C23.3758 8.73296 24.4362 9.78563 25.7442 9.78563C27.0523 9.78563 28.1126 8.73296 28.1126 7.43443Z" fill="black"/>
<path fill-rule="evenodd" clip-rule="evenodd" d="M26.7874 35.6488C26.7874 35.1294 26.3633 34.7083 25.8401 34.7083C25.3168 34.7083 24.8927 35.1294 24.8927 35.6488C24.8927 36.1682 25.3168 36.5893 25.8401 36.5893C26.3633 36.5893 26.7874 36.1682 26.7874 35.6488ZM28.2085 35.6488C28.2085 34.3503 27.1481 33.2976 25.8401 33.2976C24.532 33.2976 23.4716 34.3503 23.4716 35.6488C23.4716 36.9473 24.532 38 25.8401 38C27.1481 38 28.2085 36.9473 28.2085 35.6488Z" fill="black"/>
<path fill-rule="evenodd" clip-rule="evenodd" d="M58.7132 21.4348C58.7132 20.9154 58.2891 20.4944 57.7658 20.4944C57.2426 20.4944 56.8185 20.9154 56.8185 21.4348C56.8185 21.9543 57.2426 22.3753 57.7658 22.3753C58.2891 22.3753 58.7132 21.9543 58.7132 21.4348ZM60.1343 21.4348C60.1343 20.1363 59.0739 19.0837 57.7658 19.0837C56.4578 19.0837 55.3974 20.1363 55.3974 21.4348C55.3974 22.7334 56.4578 23.786 57.7658 23.786C59.0739 23.786 60.1343 22.7334 60.1343 21.4348Z" fill="black"/>
<path fill-rule="evenodd" clip-rule="evenodd" d="M18.4501 21.5692C18.4501 21.0498 18.0259 20.6287 17.5027 20.6287C16.9795 20.6287 16.5553 21.0498 16.5553 21.5692C16.5553 22.0886 16.9795 22.5096 17.5027 22.5096C18.0259 22.5096 18.4501 22.0886 18.4501 21.5692ZM19.8711 21.5692C19.8711 20.2706 18.8108 19.218 17.5027 19.218C16.1947 19.218 15.1343 20.2706 15.1343 21.5692C15.1343 22.8677 16.1947 23.9204 17.5027 23.9204C18.8108 23.9204 19.8711 22.8677 19.8711 21.5692Z" fill="black"/>
<path fill-rule="evenodd" clip-rule="evenodd" d="M34.9811 7.40688C34.9811 6.88747 34.5569 6.4664 34.0337 6.4664C33.5105 6.4664 33.0863 6.88747 33.0863 7.40688C33.0863 7.92629 33.5105 8.34736 34.0337 8.34736C34.5569 8.34736 34.9811 7.92629 34.9811 7.40688ZM36.4021 7.40688C36.4021 6.10835 35.3418 5.05568 34.0337 5.05568C32.7257 5.05568 31.6653 6.10835 31.6653 7.40688C31.6653 8.70541 32.7257 9.75808 34.0337 9.75808C35.3418 9.75808 36.4021 8.70541 36.4021 7.40688Z" fill="black"/>
<path fill-rule="evenodd" clip-rule="evenodd" d="M35.0769 35.6207C35.0769 35.1013 34.6528 34.6802 34.1296 34.6802C33.6063 34.6802 33.1822 35.1013 33.1822 35.6207C33.1822 36.1401 33.6063 36.5612 34.1296 36.5612C34.6528 36.5612 35.0769 36.1401 35.0769 35.6207ZM36.498 35.6207C36.498 34.3221 35.4376 33.2695 34.1296 33.2695C32.8215 33.2695 31.7611 34.3221 31.7611 35.6207C31.7611 36.9192 32.8215 37.9719 34.1296 37.9719C35.4376 37.9719 36.498 36.9192 36.498 35.6207Z" fill="black"/>
<path fill-rule="evenodd" clip-rule="evenodd" d="M43.2706 7.37875C43.2706 6.85934 42.8464 6.43827 42.3232 6.43827C41.8 6.43827 41.3758 6.85934 41.3758 7.37875C41.3758 7.89816 41.8 8.31923 42.3232 8.31923C42.8464 8.31923 43.2706 7.89816 43.2706 7.37875ZM44.6916 7.37875C44.6916 6.08022 43.6313 5.02755 42.3232 5.02755C41.0152 5.02755 39.9548 6.08022 39.9548 7.37875C39.9548 8.67728 41.0152 9.72995 42.3232 9.72995C43.6313 9.72995 44.6916 8.67728 44.6916 7.37875Z" fill="black"/>
<path fill-rule="evenodd" clip-rule="evenodd" d="M43.3663 35.5931C43.3663 35.0737 42.9421 34.6526 42.4189 34.6526C41.8957 34.6526 41.4715 35.0737 41.4715 35.5931C41.4715 36.1125 41.8957 36.5336 42.4189 36.5336C42.9421 36.5336 43.3663 36.1125 43.3663 35.5931ZM44.7873 35.5931C44.7873 34.2946 43.727 33.2419 42.4189 33.2419C41.1109 33.2419 40.0505 34.2946 40.0505 35.5931C40.0505 36.8917 41.1109 37.9443 42.4189 37.9443C43.727 37.9443 44.7873 36.8917 44.7873 35.5931Z" fill="black"/>
<path fill-rule="evenodd" clip-rule="evenodd" d="M51.5599 7.3512C51.5599 6.83179 51.1358 6.41072 50.6126 6.41072C50.0894 6.41072 49.6652 6.83179 49.6652 7.3512C49.6652 7.87061 50.0894 8.29168 50.6126 8.29168C51.1358 8.29168 51.5599 7.87061 51.5599 7.3512ZM52.981 7.3512C52.981 6.05267 51.9206 5 50.6126 5C49.3045 5 48.2441 6.05267 48.2441 7.3512C48.2441 8.64973 49.3045 9.7024 50.6126 9.7024C51.9206 9.7024 52.981 8.64973 52.981 7.3512Z" fill="black"/>
<path fill-rule="evenodd" clip-rule="evenodd" d="M51.6558 35.5656C51.6558 35.0462 51.2316 34.6251 50.7084 34.6251C50.1852 34.6251 49.761 35.0462 49.761 35.5656C49.761 36.085 50.1852 36.506 50.7084 36.506C51.2316 36.506 51.6558 36.085 51.6558 35.5656ZM53.0768 35.5656C53.0768 34.267 52.0165 33.2144 50.7084 33.2144C49.4004 33.2144 48.34 34.267 48.34 35.5656C48.34 36.8641 49.4004 37.9168 50.7084 37.9168C52.0165 37.9168 53.0768 36.8641 53.0768 35.5656Z" fill="black"/>
</svg>
