<svg width="76" height="75" viewBox="0 0 76 75" fill="none" xmlns="http://www.w3.org/2000/svg">
<path fill-rule="evenodd" clip-rule="evenodd" d="M53.966 16.3234H23.6971V36.5655H53.966V16.3234ZM22.3315 14.8889V38H55.3315V14.8889H22.3315Z" fill="black"/>
<path fill-rule="evenodd" clip-rule="evenodd" d="M42.966 13.4345H34.6971V14.4174H42.966V13.4345ZM33.3315 12V15.8519H44.3315V12H33.3315Z" fill="black"/>
<path fill-rule="evenodd" clip-rule="evenodd" d="M39.0377 32.2321C41.5869 32.2321 43.6534 30.0612 43.6534 27.3832C43.6534 24.7053 41.5869 22.5344 39.0377 22.5344C36.4885 22.5344 34.4219 24.7053 34.4219 27.3832C34.4219 30.0612 36.4885 32.2321 39.0377 32.2321ZM39.0377 33.6665C42.341 33.6665 45.0189 30.8534 45.0189 27.3832C45.0189 23.913 42.341 21.0999 39.0377 21.0999C35.7343 21.0999 33.0564 23.913 33.0564 27.3832C33.0564 30.8534 35.7343 33.6665 39.0377 33.6665Z" fill="black"/>
</svg>
