<svg width="76" height="75" viewBox="0 0 76 75" fill="none" xmlns="http://www.w3.org/2000/svg">
<path fill-rule="evenodd" clip-rule="evenodd" d="M37.5027 33.8506L38.4443 34.71C40.1131 36.233 42.3299 37.1601 44.7665 37.1601C49.9478 37.1601 54.1481 32.9598 54.1481 27.7785C54.1481 22.5971 49.9478 18.3968 44.7665 18.3968C42.3299 18.3968 40.1131 19.3239 38.4443 20.8469L37.5027 21.7063L36.5611 20.8469C34.8923 19.3239 32.6755 18.3968 30.2389 18.3968C25.0576 18.3968 20.8573 22.5971 20.8573 27.7785C20.8573 32.9598 25.0576 37.1601 30.2389 37.1601C32.6755 37.1601 34.8923 36.233 36.5611 34.71L37.5027 33.8506ZM37.5027 19.8152C39.4187 18.0665 41.9681 17 44.7665 17C50.7193 17 55.545 21.8257 55.545 27.7785C55.545 33.7312 50.7193 38.5569 44.7665 38.5569C41.9681 38.5569 39.4187 37.4904 37.5027 35.7417C35.5867 37.4904 33.0374 38.5569 30.2389 38.5569C24.2861 38.5569 19.4604 33.7312 19.4604 27.7785C19.4604 21.8257 24.2861 17 30.2389 17C33.0374 17 35.5867 18.0665 37.5027 19.8152Z" fill="black"/>
<path fill-rule="evenodd" clip-rule="evenodd" d="M37.5024 32.9424C39.9662 32.9424 41.9634 30.9452 41.9634 28.4814C41.9634 26.0176 39.9662 24.0204 37.5024 24.0204C35.0386 24.0204 33.0413 26.0176 33.0413 28.4814C33.0413 30.9452 35.0386 32.9424 37.5024 32.9424ZM37.5024 34.3393C40.7376 34.3393 43.3602 31.7166 43.3602 28.4814C43.3602 25.2462 40.7376 22.6235 37.5024 22.6235C34.2672 22.6235 31.6445 25.2462 31.6445 28.4814C31.6445 31.7166 34.2672 34.3393 37.5024 34.3393Z" fill="black"/>
<path fill-rule="evenodd" clip-rule="evenodd" d="M32.1129 28.2471H30.707V26.8503H32.1129V28.2471Z" fill="black"/>
<path fill-rule="evenodd" clip-rule="evenodd" d="M44.2975 28.2471H42.8916V26.8503H44.2975V28.2471Z" fill="black"/>
<path fill-rule="evenodd" clip-rule="evenodd" d="M42.0922 33.3158C43.1772 31.8823 43.7777 29.7713 43.5566 27.1244L44.9495 27C45.1942 29.9305 44.5402 32.4271 43.1932 34.2067C41.8394 35.9954 39.8282 37 37.5 37C35.2039 37 33.1851 36.141 31.815 34.3992C30.4532 32.6678 29.8077 30.1607 30.0501 27.0049L31.4437 27.1194C31.2204 30.0262 31.8295 32.1265 32.8996 33.487C33.9615 34.8371 35.552 35.5544 37.5 35.5544C39.4159 35.5544 41.0141 34.7402 42.0922 33.3158Z" fill="black"/>
</svg>
