<svg width="38" height="29" viewBox="0 0 38 29" fill="none" xmlns="http://www.w3.org/2000/svg">
<rect x="6.6" y="21.4371" width="14.8" height="24.8" transform="rotate(-90 6.6 21.4371)" stroke="#0500FF" stroke-width="1.2"/>
<circle cx="8.95947" cy="2.0708" r="1.4" transform="rotate(-90 8.95947 2.0708)" stroke="#0500FF" stroke-width="1.2"/>
<circle cx="9.04053" cy="26.0708" r="1.4" transform="rotate(-90 9.04053 26.0708)" stroke="#0500FF" stroke-width="1.2"/>
<circle cx="36" cy="13.98" r="1.4" transform="rotate(-90 36 13.98)" stroke="#0500FF" stroke-width="1.2"/>
<circle cx="2" cy="14.0942" r="1.4" transform="rotate(-90 2 14.0942)" stroke="#0500FF" stroke-width="1.2"/>
<circle cx="15.9595" cy="2.04736" r="1.4" transform="rotate(-90 15.9595 2.04736)" stroke="#0500FF" stroke-width="1.2"/>
<circle cx="16.0405" cy="26.0469" r="1.4" transform="rotate(-90 16.0405 26.0469)" stroke="#0500FF" stroke-width="1.2"/>
<circle cx="22.9595" cy="2.02344" r="1.4" transform="rotate(-90 22.9595 2.02344)" stroke="#0500FF" stroke-width="1.2"/>
<circle cx="23.0403" cy="26.0234" r="1.4" transform="rotate(-90 23.0403 26.0234)" stroke="#0500FF" stroke-width="1.2"/>
<circle cx="29.9595" cy="2" r="1.4" transform="rotate(-90 29.9595 2)" stroke="#0500FF" stroke-width="1.2"/>
<circle cx="30.0403" cy="26" r="1.4" transform="rotate(-90 30.0403 26)" stroke="#0500FF" stroke-width="1.2"/>
</svg>
