<svg width="23" height="32" viewBox="0 0 23 32" fill="none" xmlns="http://www.w3.org/2000/svg">
<line x1="5.26606" y1="1.57574" x2="7.38738" y2="3.69706" stroke="#0500FF" stroke-width="1.2"/>
<line y1="-0.6" x2="3" y2="-0.6" transform="matrix(-0.707107 0.707107 0.707107 0.707107 14.3333 2)" stroke="#0500FF" stroke-width="1.2"/>
<line x1="5.60259" y1="9.30401" x2="7.72391" y2="7.18269" stroke="#0500FF" stroke-width="1.2"/>
<line y1="-0.6" x2="3" y2="-0.6" transform="matrix(-0.707107 -0.707107 -0.707107 0.707107 13.1482 9.72827)" stroke="#0500FF" stroke-width="1.2"/>
<line x1="4.02686" y1="5.24497" x2="7.02686" y2="5.24497" stroke="#0500FF" stroke-width="1.2"/>
<line y1="-0.6" x2="3" y2="-0.6" transform="matrix(-1 0 0 1 15.1482 5.84497)" stroke="#0500FF" stroke-width="1.2"/>
<line x1="9.62686" x2="9.62686" y2="3" stroke="#0500FF" stroke-width="1.2"/>
<line x1="16.925" y1="8.34515" x2="17.4392" y2="10.2161" stroke="#0500FF" stroke-width="1.2"/>
<line y1="-0.6" x2="1.94028" y2="-0.6" transform="matrix(-0.964249 0.264998 0.264998 0.964249 21.6821 11.5396)" stroke="#0500FF" stroke-width="1.2"/>
<line x1="14.3823" y1="12.6491" x2="16.2532" y2="12.1349" stroke="#0500FF" stroke-width="1.2"/>
<line y1="-0.6" x2="1.94028" y2="-0.6" transform="matrix(-0.264998 -0.964249 -0.964249 0.264998 18.5447 15.5051)" stroke="#0500FF" stroke-width="1.2"/>
<line x1="14.9554" y1="9.88338" x2="16.6419" y2="10.8427" stroke="#0500FF" stroke-width="1.2"/>
<line y1="-0.6" x2="1.94028" y2="-0.6" transform="matrix(-0.869209 -0.494445 -0.494445 0.869209 20.9109 13.9617)" stroke="#0500FF" stroke-width="1.2"/>
<line x1="19.8601" y1="9.01481" x2="18.9008" y2="10.7013" stroke="#0500FF" stroke-width="1.2"/>
<line x1="1.28902" y1="10.556" x2="3.23513" y2="11.5057" stroke="#0500FF" stroke-width="1.2"/>
<line y1="-0.6" x2="2.16548" y2="-0.6" transform="matrix(-0.438567 0.898698 0.898698 0.438567 7.50464 8.86609)" stroke="#0500FF" stroke-width="1.2"/>
<line x1="3.11068" y1="15.8285" x2="4.06039" y2="13.8824" stroke="#0500FF" stroke-width="1.2"/>
<line y1="-0.6" x2="2.16548" y2="-0.6" transform="matrix(-0.898698 -0.438567 -0.438567 0.898698 8.51074 14.4194)" stroke="#0500FF" stroke-width="1.2"/>
<line x1="1.17734" y1="13.3434" x2="3.225" y2="12.6388" stroke="#0500FF" stroke-width="1.2"/>
<line y1="-0.6" x2="2.16548" y2="-0.6" transform="matrix(-0.94559 0.325362 0.325362 0.94559 8.96387 11.2991)" stroke="#0500FF" stroke-width="1.2"/>
<line x1="3.9802" y1="8.55185" x2="4.68476" y2="10.5995" stroke="#0500FF" stroke-width="1.2"/>
<line x1="9.6271" y1="8" x2="9.6271" y2="24" stroke="#0500FF" stroke-width="1.2"/>
<line x1="16.6803" y1="13.8524" x2="8.79624" y2="30.0339" stroke="#0500FF" stroke-width="1.2"/>
<line x1="5.63009" y1="14.2221" x2="8.79005" y2="25.7986" stroke="#0500FF" stroke-width="1.2"/>
<path d="M6.51215 31.4L3.76929 18.6H16.2849L13.5421 31.4H6.51215Z" stroke="#0500FF" stroke-width="1.2"/>
</svg>
