<svg width="21" height="33" viewBox="0 0 21 33" fill="none" xmlns="http://www.w3.org/2000/svg">
<line x1="5.6" y1="4" x2="5.6" y2="9" stroke="#0500FF" stroke-width="1.2"/>
<line x1="15.6" y1="4" x2="15.6" y2="9" stroke="#0500FF" stroke-width="1.2"/>
<path d="M8 32V8H3V32" stroke="#0500FF" stroke-width="1.2"/>
<path d="M18 32V8H13V32" stroke="#0500FF" stroke-width="1.2"/>
<path d="M4.50788 2.4L5.5 1.02528L6.49212 2.4H4.50788Z" fill="black" stroke="#0500FF" stroke-width="1.2"/>
<path d="M14.5079 2.4L15.5 1.02528L16.4921 2.4H14.5079Z" fill="black" stroke="#0500FF" stroke-width="1.2"/>
<path d="M7 3C7 3.55228 6.32843 4 5.5 4C4.67157 4 4 3.55228 4 3" stroke="#0500FF" stroke-width="1.2"/>
<path d="M17 3C17 3.55228 16.3284 4 15.5 4C14.6716 4 14 3.55228 14 3" stroke="#0500FF" stroke-width="1.2"/>
<rect x="0.6" y="29.6" width="19.8" height="2.8" stroke="#0500FF" stroke-width="1.2"/>
</svg>
