<svg width="8" height="30" viewBox="0 0 8 30" fill="none" xmlns="http://www.w3.org/2000/svg">
<mask id="path-1-inside-1" fill="white">
<path fill-rule="evenodd" clip-rule="evenodd" d="M7.41077 25.1251L3.74994 2L0.0891148 25.1251H0.0693411L0.0856873 25.1467L0.0693359 25.25H0.163671L3.74995 30.0001L7.33623 25.25H7.43055L7.4142 25.1467L7.43056 25.1251H7.41077Z"/>
</mask>
<path d="M3.74994 2L4.93518 1.81237L2.5647 1.81237L3.74994 2ZM7.41077 25.1251L6.22553 25.3127L6.3858 26.3251H7.41077V25.1251ZM0.0891148 25.1251V26.3251H1.11409L1.27436 25.3127L0.0891148 25.1251ZM0.0693411 25.1251V23.9251H-2.34029L-0.888349 25.8481L0.0693411 25.1251ZM0.0856873 25.1467L1.27093 25.3343L1.35067 24.8306L1.04338 24.4236L0.0856873 25.1467ZM0.0693359 25.25L-1.1159 25.0624L-1.33557 26.45H0.0693359V25.25ZM0.163671 25.25L1.12137 24.5269L0.76128 24.05H0.163671V25.25ZM3.74995 30.0001L2.79225 30.7231L3.74995 31.9916L4.70765 30.7231L3.74995 30.0001ZM7.33623 25.25V24.05H6.73862L6.37853 24.5269L7.33623 25.25ZM7.43055 25.25V26.45H8.83546L8.61579 25.0624L7.43055 25.25ZM7.4142 25.1467L6.45651 24.4236L6.14922 24.8306L6.22896 25.3344L7.4142 25.1467ZM7.43056 25.1251L8.38824 25.8481L9.8402 23.9251H7.43056V25.1251ZM2.5647 2.18763L6.22553 25.3127L8.59601 24.9374L4.93518 1.81237L2.5647 2.18763ZM1.27436 25.3127L4.93518 2.18763L2.5647 1.81237L-1.09613 24.9374L1.27436 25.3127ZM0.0693411 26.3251H0.0891148V23.9251H0.0693411V26.3251ZM1.04338 24.4236L1.02703 24.402L-0.888349 25.8481L-0.872003 25.8698L1.04338 24.4236ZM1.25458 25.4376L1.27093 25.3343L-1.09955 24.9591L-1.1159 25.0624L1.25458 25.4376ZM0.163671 24.05H0.0693359V26.45H0.163671V24.05ZM4.70765 29.277L1.12137 24.5269L-0.794027 25.9731L2.79225 30.7231L4.70765 29.277ZM6.37853 24.5269L2.79225 29.277L4.70765 30.7231L8.29393 25.9731L6.37853 24.5269ZM7.43055 24.05H7.33623V26.45H7.43055V24.05ZM6.22896 25.3344L6.24531 25.4376L8.61579 25.0624L8.59944 24.9591L6.22896 25.3344ZM6.47287 24.402L6.45651 24.4236L8.37189 25.8698L8.38824 25.8481L6.47287 24.402ZM7.41077 26.3251H7.43056V23.9251H7.41077V26.3251Z" fill="#0500FF" mask="url(#path-1-inside-1)"/>
<path d="M6.26818 2.37628L3.94741 5.99401L1.62663 2.37628L6.26818 2.37628Z" fill="#F7F2E6" stroke="#0500FF" stroke-width="1.2"/>
</svg>
