<svg width="76" height="75" viewBox="0 0 76 75" fill="none" xmlns="http://www.w3.org/2000/svg">
<path fill-rule="evenodd" clip-rule="evenodd" d="M32.5296 39.6364V17.5909H31.0002V41H43.9998V17.5909H42.4705V39.6364H32.5296Z" fill="black"/>
<path fill-rule="evenodd" clip-rule="evenodd" d="M37.4947 11.1415L37.847 11.3016C37.9648 11.3551 38.0803 11.4076 38.1935 11.4591C39.4913 12.0486 40.4978 12.5058 41.2647 12.895C42.0909 13.3143 42.7155 13.6912 43.1507 14.1246C43.617 14.5888 43.8317 15.0817 43.9255 15.6588C44.0021 16.1296 44.001 16.6894 43.9997 17.3336C43.9995 17.418 43.9998 17.5037 43.9998 17.5909H42.4705C42.4705 17.506 42.4701 17.4243 42.4701 17.3457C42.4709 16.6696 42.4714 16.2198 42.412 15.8544C42.353 15.4912 42.2409 15.2628 42.0114 15.0342C41.7508 14.7748 41.3107 14.4873 40.5082 14.0801C39.7775 13.7093 38.8097 13.2694 37.5048 12.6766C37.3834 12.7333 37.265 12.7886 37.1494 12.8425C36.0582 13.3519 35.2205 13.7429 34.5653 14.0787C33.7691 14.4867 33.3184 14.7764 33.0438 15.0417C32.5683 15.5013 32.5296 15.9434 32.5296 17.5909H31.0002C31.0002 17.5346 31.0002 17.4789 31.0001 17.4237C30.9987 16.0207 30.9977 15.0082 31.9197 14.1171C32.362 13.6896 32.9866 13.3149 33.8033 12.8964C34.487 12.546 35.3585 12.1392 36.4494 11.63C36.6719 11.5262 36.9035 11.4181 37.1445 11.3053L37.4947 11.1415Z" fill="black"/>
<path fill-rule="evenodd" clip-rule="evenodd" d="M34.8236 1H40.1764V5.09091H38.647V2.36364H36.353V5.09091H34.8236V1Z" fill="black"/>
<path fill-rule="evenodd" clip-rule="evenodd" d="M34.8236 3.27273H40.1764V13.0455H38.647V4.63636H36.353V13.0455H34.8236V3.27273Z" fill="black"/>
</svg>
