<svg width="269" height="266" viewBox="0 0 269 266" fill="none" xmlns="http://www.w3.org/2000/svg">
<path fill-rule="evenodd" clip-rule="evenodd" d="M120.177 145.852V62.6307H115.001V151H158.999V62.6307H153.823V145.852H120.177Z" fill="black"/>
<path fill-rule="evenodd" clip-rule="evenodd" d="M136.982 38.2841L138.175 38.8887C138.573 39.0907 138.964 39.2887 139.347 39.4829C143.74 41.7083 147.146 43.4343 149.742 44.9035C152.538 46.4863 154.652 47.9092 156.126 49.5453C157.704 51.2978 158.43 53.1583 158.748 55.3369C159.007 57.1141 159.003 59.2274 158.999 61.6595C158.998 61.9778 158.999 62.3015 158.999 62.6307H153.823C153.823 62.31 153.822 62.0017 153.822 61.7049C153.825 59.1529 153.826 57.4548 153.625 56.0754C153.425 54.7043 153.046 53.8421 152.269 52.9793C151.387 51.9999 149.898 50.9147 147.181 49.3773C144.709 47.9776 141.433 46.317 137.016 44.0791C136.605 44.2931 136.205 44.5018 135.813 44.7055C132.12 46.6283 129.285 48.1046 127.067 49.3719C124.372 50.9123 122.847 52.0058 121.917 53.0076C120.308 54.7423 120.177 56.4113 120.177 62.6307H115.001C115.001 62.418 115.001 62.2077 115 61.9996C114.996 56.7032 114.992 52.8809 118.113 49.517C119.61 47.9033 121.724 46.4887 124.488 44.9088C126.802 43.5862 129.752 42.0506 133.444 40.1284C134.197 39.7364 134.981 39.3283 135.797 38.9027L136.982 38.2841Z" fill="black"/>
<path fill-rule="evenodd" clip-rule="evenodd" d="M127.942 0H146.059V15.4432H140.882V5.14773H133.118V15.4432H127.942V0Z" fill="black"/>
<path fill-rule="evenodd" clip-rule="evenodd" d="M127.942 8.57955H146.059V45.4716H140.882V13.7273H133.118V45.4716H127.942V8.57955Z" fill="black"/>
</svg>
