<svg width="76" height="75" viewBox="0 0 76 75" fill="none" xmlns="http://www.w3.org/2000/svg">
<path fill-rule="evenodd" clip-rule="evenodd" d="M37.7723 39.8675C45.3581 39.8675 51.5077 33.718 51.5077 26.1322C51.5077 18.5463 45.3581 12.3968 37.7723 12.3968C30.1865 12.3968 24.037 18.5463 24.037 26.1322C24.037 33.718 30.1865 39.8675 37.7723 39.8675ZM37.7723 41.2643C46.1296 41.2643 52.9045 34.4894 52.9045 26.1322C52.9045 17.7749 46.1296 11 37.7723 11C29.415 11 22.6401 17.7749 22.6401 26.1322C22.6401 34.4894 29.415 41.2643 37.7723 41.2643Z" fill="black"/>
<path fill-rule="evenodd" clip-rule="evenodd" d="M38.8961 16.9213C38.893 16.9372 38.8828 16.9898 38.8522 17.0876C38.8046 17.2395 38.7284 17.4369 38.6221 17.6771C38.4096 18.1575 38.1166 18.7213 37.8061 19.2911C37.7768 19.3448 37.748 19.3974 37.7196 19.4491C37.6233 19.2714 37.5287 19.0929 37.4375 18.9154C37.1864 18.4272 36.9759 17.9758 36.8313 17.5947C36.7593 17.405 36.7098 17.2487 36.6795 17.1257C36.65 17.0065 36.6467 16.9508 36.6464 16.9451C36.6463 16.9447 36.6463 16.9445 36.6463 16.9448C36.6463 16.8099 36.7067 16.6401 36.8972 16.4767C37.0907 16.3109 37.3955 16.1798 37.7715 16.1798C38.1476 16.1798 38.4523 16.3109 38.6458 16.4767C38.8255 16.6307 38.8894 16.7905 38.8961 16.9213ZM38.5261 20.8732C39.2691 19.5455 40.2936 17.7057 40.2936 16.9448C40.2936 15.7509 39.1644 14.783 37.7715 14.783C36.3787 14.783 35.2495 15.7509 35.2495 16.9448C35.2495 17.8035 36.1194 19.4774 36.9207 20.8858C37.1495 21.288 37.3727 21.6685 37.5685 22.0023C37.6402 22.1246 37.7082 22.2406 37.7715 22.3491C37.7715 22.2214 38.0886 21.6549 38.4979 20.9236C38.5072 20.9069 38.5166 20.8901 38.5261 20.8732Z" fill="black"/>
<path fill-rule="evenodd" clip-rule="evenodd" d="M38.8961 35.3429C38.893 35.327 38.8828 35.2744 38.8522 35.1766C38.8046 35.0247 38.7284 34.8273 38.6221 34.5871C38.4096 34.1067 38.1166 33.5429 37.8061 32.9732C37.7768 32.9195 37.748 32.8668 37.7196 32.8151C37.6233 32.9928 37.5287 33.1713 37.4375 33.3488C37.1864 33.8371 36.9759 34.2884 36.8313 34.6696C36.7593 34.8593 36.7098 35.0155 36.6795 35.1385C36.65 35.2578 36.6467 35.3134 36.6464 35.3191C36.6463 35.3196 36.6463 35.3197 36.6463 35.3195C36.6463 35.4543 36.7067 35.6242 36.8972 35.7875C37.0907 35.9534 37.3955 36.0844 37.7715 36.0844C38.1476 36.0844 38.4523 35.9534 38.6458 35.7875C38.8255 35.6335 38.8894 35.4737 38.8961 35.3429ZM38.5261 31.391C39.2691 32.7187 40.2936 34.5586 40.2936 35.3195C40.2936 36.5134 39.1644 37.4812 37.7715 37.4812C36.3787 37.4812 35.2495 36.5134 35.2495 35.3195C35.2495 34.4607 36.1194 32.7868 36.9207 31.3785C37.1495 30.9763 37.3727 30.5957 37.5685 30.262C37.6402 30.1396 37.7082 30.0236 37.7715 29.9151C37.7715 30.0429 38.0886 30.6093 38.4979 31.3406C38.5072 31.3573 38.5166 31.3741 38.5261 31.391Z" fill="black"/>
<path fill-rule="evenodd" clip-rule="evenodd" d="M32.2644 18.622C32.2734 18.6354 32.3034 18.6798 32.3509 18.7706C32.4247 18.9117 32.5103 19.1052 32.605 19.3502C32.7945 19.8402 32.986 20.446 33.1693 21.0684C33.1865 21.1271 33.2034 21.1847 33.2199 21.2413C33.0261 21.1837 32.833 21.1244 32.643 21.0635C32.1202 20.8958 31.6523 20.7254 31.2805 20.5582C31.0954 20.4749 30.9499 20.3994 30.8415 20.3339C30.7363 20.2704 30.6946 20.2334 30.6904 20.2297C30.69 20.2293 30.6899 20.2293 30.6901 20.2294C30.5947 20.1341 30.5173 19.9713 30.5366 19.7211C30.5561 19.4669 30.679 19.1588 30.9449 18.8929C31.2108 18.627 31.5189 18.5041 31.773 18.4846C32.009 18.4664 32.1671 18.5342 32.2644 18.622ZM34.7971 21.6781C34.3837 20.2138 33.8071 18.1885 33.2691 17.6504C32.4249 16.8062 30.9421 16.9203 29.9572 17.9052C28.9723 18.8901 28.8582 20.3729 29.7024 21.2171C30.3096 21.8244 32.1084 22.3928 33.6708 22.8221C34.117 22.9448 34.5439 23.056 34.9183 23.1536C35.0556 23.1893 35.1857 23.2233 35.3072 23.2552C35.2169 23.1649 35.0405 22.5401 34.8128 21.7337C34.8076 21.7152 34.8024 21.6967 34.7971 21.6781Z" fill="black"/>
<path fill-rule="evenodd" clip-rule="evenodd" d="M44.8708 32.0519C44.8573 32.0428 44.8129 32.0129 44.7221 31.9654C44.581 31.8916 44.3876 31.806 44.1426 31.7113C43.6526 31.5218 43.0467 31.3303 42.4243 31.147C42.3656 31.1297 42.308 31.1129 42.2514 31.0964C42.309 31.2901 42.3683 31.4832 42.4293 31.6733C42.597 32.1961 42.7673 32.664 42.9346 33.0358C43.0178 33.2208 43.0933 33.3663 43.1588 33.4748C43.2223 33.5799 43.2593 33.6216 43.2631 33.6259C43.2634 33.6262 43.2635 33.6263 43.2633 33.6262C43.3587 33.7215 43.5214 33.799 43.7717 33.7797C44.0258 33.7602 44.3339 33.6373 44.5998 33.3714C44.8657 33.1055 44.9886 32.7974 45.0081 32.5433C45.0263 32.3073 44.9585 32.1492 44.8708 32.0519ZM41.8147 29.5191C43.2789 29.9326 45.3043 30.5092 45.8423 31.0472C46.6865 31.8914 46.5725 33.3742 45.5875 34.3591C44.6026 35.344 43.1198 35.4581 42.2756 34.6139C41.6684 34.0066 41.0999 32.2079 40.6706 30.6455C40.548 30.1993 40.4367 29.7723 40.3392 29.3979C40.3034 29.2607 40.2695 29.1306 40.2375 29.0091C40.3278 29.0994 40.9526 29.2758 41.7591 29.5034C41.7775 29.5087 41.796 29.5139 41.8147 29.5191Z" fill="black"/>
<path fill-rule="evenodd" clip-rule="evenodd" d="M28.5616 25.0077C28.5775 25.0108 28.6301 25.021 28.7279 25.0516C28.8798 25.0992 29.0772 25.1754 29.3174 25.2817C29.7978 25.4942 30.3617 25.7872 30.9314 26.0977C30.9851 26.127 31.0377 26.1558 31.0894 26.1842C30.9117 26.2805 30.7332 26.3751 30.5557 26.4664C30.0675 26.7174 29.6161 26.9279 29.235 27.0725C29.0453 27.1445 28.889 27.194 28.766 27.2243C28.6468 27.2538 28.5911 27.2571 28.5855 27.2574C28.585 27.2575 28.5849 27.2575 28.5851 27.2575C28.4502 27.2575 28.2804 27.1971 28.117 27.0066C27.9512 26.8131 27.8202 26.5083 27.8202 26.1323C27.8202 25.7562 27.9512 25.4515 28.117 25.258C28.271 25.0783 28.4308 25.0144 28.5616 25.0077ZM32.5135 25.3777C31.1858 24.6347 29.346 23.6102 28.5851 23.6102C27.3912 23.6102 26.4233 24.7394 26.4233 26.1323C26.4233 27.5251 27.3912 28.6543 28.5851 28.6543C29.4438 28.6543 31.1177 27.7844 32.5261 26.9832C32.9283 26.7543 33.3088 26.5311 33.6426 26.3354C33.7649 26.2636 33.8809 26.1956 33.9894 26.1323C33.8617 26.1323 33.2952 25.8152 32.5639 25.4059C32.5472 25.3966 32.5304 25.3872 32.5135 25.3777Z" fill="black"/>
<path fill-rule="evenodd" clip-rule="evenodd" d="M46.9833 25.0077C46.9674 25.0108 46.9148 25.021 46.817 25.0516C46.6651 25.0992 46.4677 25.1754 46.2275 25.2817C45.7471 25.4942 45.1833 25.7872 44.6135 26.0977C44.5598 26.127 44.5072 26.1558 44.4555 26.1842C44.6332 26.2805 44.8117 26.3751 44.9892 26.4664C45.4774 26.7174 45.9288 26.9279 46.3099 27.0725C46.4996 27.1445 46.6559 27.194 46.7789 27.2243C46.8981 27.2538 46.9538 27.2571 46.9595 27.2574C46.9599 27.2575 46.9601 27.2575 46.9598 27.2575C47.0947 27.2575 47.2645 27.1971 47.4279 27.0066C47.5937 26.8131 47.7248 26.5083 47.7248 26.1323C47.7248 25.7562 47.5937 25.4515 47.4279 25.258C47.2739 25.0783 47.1141 25.0144 46.9833 25.0077ZM43.0314 25.3777C44.3591 24.6347 46.1989 23.6102 46.9598 23.6102C48.1537 23.6102 49.1216 24.7394 49.1216 26.1323C49.1216 27.5251 48.1537 28.6543 46.9598 28.6543C46.1011 28.6543 44.4272 27.7844 43.0188 26.9832C42.6166 26.7543 42.2361 26.5311 41.9023 26.3354C41.78 26.2636 41.664 26.1956 41.5555 26.1323C41.6832 26.1323 42.2497 25.8152 42.981 25.4059C42.9977 25.3966 43.0145 25.3872 43.0314 25.3777Z" fill="black"/>
<path fill-rule="evenodd" clip-rule="evenodd" d="M30.2503 31.6275C30.2638 31.6185 30.3082 31.5885 30.399 31.541C30.5401 31.4672 30.7335 31.3816 30.9785 31.2869C31.4685 31.0974 32.0744 30.9059 32.6968 30.7226C32.7555 30.7054 32.8131 30.6885 32.8697 30.672C32.8121 30.8658 32.7528 31.0589 32.6918 31.2489C32.5241 31.7717 32.3538 32.2397 32.1865 32.6114C32.1033 32.7965 32.0278 32.942 31.9623 33.0504C31.8988 33.1556 31.8618 33.1973 31.858 33.2015C31.8577 33.2019 31.8576 33.202 31.8578 33.2018C31.7624 33.2972 31.5997 33.3746 31.3494 33.3553C31.0953 33.3358 30.7872 33.2129 30.5212 32.947C30.2553 32.6811 30.1325 32.373 30.1129 32.1189C30.0948 31.8829 30.1626 31.7248 30.2503 31.6275ZM33.3064 29.0948C31.8422 29.5082 29.8168 30.0848 29.2788 30.6228C28.4346 31.467 28.5486 32.9498 29.5336 33.9347C30.5185 34.9196 32.0013 35.0337 32.8455 34.1895C33.4527 33.5823 34.0212 31.7836 34.4505 30.2211C34.5731 29.7749 34.6844 29.348 34.7819 28.9736C34.8177 28.8363 34.8516 28.7062 34.8836 28.5847C34.7933 28.675 34.1685 28.8514 33.362 29.0791C33.3436 29.0843 33.325 29.0895 33.3064 29.0948Z" fill="black"/>
<path fill-rule="evenodd" clip-rule="evenodd" d="M43.7029 19.0461C43.6938 19.0596 43.6639 19.104 43.6164 19.1948C43.5426 19.3359 43.457 19.5294 43.3623 19.7744C43.1728 20.2644 42.9813 20.8702 42.798 21.4926C42.7807 21.5513 42.7639 21.6089 42.7474 21.6655C42.9411 21.6079 43.1342 21.5486 43.3243 21.4877C43.8471 21.32 44.315 21.1496 44.6868 20.9824C44.8719 20.8991 45.0173 20.8236 45.1258 20.7581C45.2309 20.6946 45.2726 20.6576 45.2769 20.6539C45.2772 20.6535 45.2773 20.6535 45.2772 20.6536C45.3725 20.5583 45.45 20.3955 45.4307 20.1452C45.4112 19.8911 45.2883 19.583 45.0224 19.3171C44.7565 19.0512 44.4484 18.9283 44.1943 18.9088C43.9583 18.8906 43.8002 18.9584 43.7029 19.0461ZM41.1701 22.1023C41.5836 20.638 42.1602 18.6127 42.6982 18.0746C43.5424 17.2304 45.0252 17.3445 46.0101 18.3294C46.995 19.3143 47.1091 20.7971 46.2649 21.6413C45.6576 22.2485 43.8589 22.817 42.2965 23.2463C41.8503 23.3689 41.4234 23.4802 41.0489 23.5778C40.9117 23.6135 40.7816 23.6475 40.6601 23.6794C40.7504 23.5891 40.9268 22.9643 41.1544 22.1579C41.1597 22.1394 41.1649 22.1209 41.1701 22.1023Z" fill="black"/>
</svg>
