<svg width="76" height="75" viewBox="0 0 76 75" fill="none" xmlns="http://www.w3.org/2000/svg">
<path fill-rule="evenodd" clip-rule="evenodd" d="M27.3735 21.2874V39.6193H48.5169V21.4322L48.7663 21.0797C49.2464 20.4013 49.517 19.6102 49.517 18.7667C49.517 16.428 47.3561 14.3474 44.4453 14.3474C43.5777 14.3474 42.7678 14.5367 42.0614 14.8658L41.368 15.1888L40.7076 14.8066C39.2018 13.9352 37.1909 13.3807 34.9453 13.3807C32.441 13.3807 30.2351 14.0698 28.6933 15.113C27.1471 16.1593 26.3737 17.4723 26.3737 18.7667C26.3737 19.5113 26.6237 20.2428 27.1187 20.9324L27.3735 21.2874ZM25.9452 21.7196C25.3046 20.8272 24.9453 19.8253 24.9453 18.7667C24.9453 15.0295 29.4225 12 34.9453 12C37.4249 12 39.6938 12.6107 41.4413 13.6219C42.3398 13.2034 43.3616 12.9667 44.4453 12.9667C48.0352 12.9667 50.9453 15.5634 50.9453 18.7667C50.9453 19.9036 50.5787 20.9642 49.9452 21.8593V41H25.9452V21.7196Z" fill="black"/>
</svg>
