<svg width="76" height="75" viewBox="0 0 76 75" fill="none" xmlns="http://www.w3.org/2000/svg">
<path fill-rule="evenodd" clip-rule="evenodd" d="M26.3968 23.0164C26.3968 28.6223 31.8988 33.3728 38.9643 33.3728C46.0297 33.3728 51.5317 28.6223 51.5317 23.0164H52.9285C52.9285 29.6213 46.5519 34.7696 38.9643 34.7696C31.3766 34.7696 25 29.6213 25 23.0164H26.3968Z" fill="black"/>
<path fill-rule="evenodd" clip-rule="evenodd" d="M38.9645 40.7041V34.0712H40.3613V40.7041H38.9645Z" fill="black"/>
<path fill-rule="evenodd" clip-rule="evenodd" d="M45.5974 40.7041H33.437V39.3073H45.5974V40.7041Z" fill="black"/>
<path fill-rule="evenodd" clip-rule="evenodd" d="M52.2304 24.1219H25.6987V22.725H52.2304V24.1219Z" fill="black"/>
<path fill-rule="evenodd" clip-rule="evenodd" d="M38.4117 13.8811C39.1666 13.8811 39.7786 13.2691 39.7786 12.5142C39.7786 11.7593 39.1666 11.1473 38.4117 11.1473C37.6567 11.1473 37.0448 11.7593 37.0448 12.5142C37.0448 13.2691 37.6567 13.8811 38.4117 13.8811ZM38.4117 15.2779C39.938 15.2779 41.1754 14.0406 41.1754 12.5142C41.1754 10.9878 39.938 9.75049 38.4117 9.75049C36.8853 9.75049 35.6479 10.9878 35.6479 12.5142C35.6479 14.0406 36.8853 15.2779 38.4117 15.2779Z" fill="black"/>
<path fill-rule="evenodd" clip-rule="evenodd" d="M33.9213 14.8113C33.3397 15.4982 33.0685 16.3864 33.0055 16.9818L32.9506 17.5006L32.4375 17.5951C30.1218 18.0216 29.1795 19.0151 28.8192 19.9393C28.4371 20.919 28.6304 22.0162 28.9503 22.7311L27.6754 23.3017C27.255 22.3623 26.9595 20.8635 27.5178 19.4318C28.0614 18.0378 29.3492 16.8668 31.6988 16.3221C31.8569 15.5778 32.2101 14.6707 32.8553 13.9087C33.6865 12.9271 34.9795 12.2197 36.8198 12.3954L36.687 13.7859C35.3288 13.6563 34.4747 14.1578 33.9213 14.8113Z" fill="black"/>
<path fill-rule="evenodd" clip-rule="evenodd" d="M39.6011 6L41.5823 6.90416C42.7587 7.44106 44.3828 8.55921 45.4633 10.2073C46.4686 11.7408 46.9937 13.727 46.2618 16.0519C47.2214 16.4617 48.3503 17.1874 49.234 18.2836C50.3645 19.686 51.069 21.6682 50.5361 24.2624L49.1678 23.9813C49.6132 21.8134 49.0269 20.2524 48.1465 19.1603C47.2447 18.0415 46.009 17.3882 45.1688 17.1378L44.4289 16.9172L44.7223 16.203C45.6025 14.0606 45.1765 12.3177 44.2951 10.9731C43.75 10.1417 43.0269 9.46047 42.3199 8.95092C42.289 9.39535 42.1615 9.81186 41.982 10.1825C41.5917 10.9883 40.949 11.6053 40.4682 11.9396L39.6707 10.7928C40.0052 10.5602 40.463 10.1143 40.7249 9.57361C40.9734 9.06043 41.0365 8.49565 40.6869 7.88775L39.6011 6Z" fill="black"/>
</svg>
