<svg width="76" height="75" viewBox="0 0 76 75" fill="none" xmlns="http://www.w3.org/2000/svg">
<path fill-rule="evenodd" clip-rule="evenodd" d="M52.4912 21.4056H25.509V36.7312C25.509 37.8144 26.3979 38.6925 27.4945 38.6925H50.5057C51.6023 38.6925 52.4912 37.8144 52.4912 36.7312V21.4056ZM24.1853 20.0981V36.7312C24.1853 38.5365 25.6669 40 27.4945 40H50.5057C52.3333 40 53.8149 38.5365 53.8149 36.7312V20.0981H24.1853Z" fill="black"/>
<path fill-rule="evenodd" clip-rule="evenodd" d="M53.6763 16.9903H24.3237V20.2287H53.6763V16.9903ZM23 15.6828V21.5363H55V15.6828H23Z" fill="black"/>
<path fill-rule="evenodd" clip-rule="evenodd" d="M38.9999 15.546C39.9053 15.546 40.6392 14.821 40.6392 13.9267C40.6392 13.0325 39.9053 12.3075 38.9999 12.3075C38.0946 12.3075 37.3606 13.0325 37.3606 13.9267C37.3606 14.821 38.0946 15.546 38.9999 15.546ZM38.9999 16.8535C40.6363 16.8535 41.9629 15.5431 41.9629 13.9267C41.9629 12.3104 40.6363 11 38.9999 11C37.3635 11 36.037 12.3104 36.037 13.9267C36.037 15.5431 37.3635 16.8535 38.9999 16.8535Z" fill="black"/>
</svg>
