<svg width="76" height="108" viewBox="0 0 76 108" fill="none" xmlns="http://www.w3.org/2000/svg">
<path fill-rule="evenodd" clip-rule="evenodd" d="M49.1249 40.4694L45.8973 41.3217L41.6138 43.4039V44.3827L51.0782 41.4083L49.1249 40.4694Z" stroke="white" stroke-width="2"/>
<path fill-rule="evenodd" clip-rule="evenodd" d="M36.736 43.1284L31.379 40.86L26.8778 40L25 40.7047L36.736 44.6944V43.1284Z" stroke="white" stroke-width="2"/>
<path d="M32.5723 67.2887C34.763 66.6628 39.52 65.5987 41.0222 66.3498" stroke="white" stroke-width="2"/>
<path d="M45.7165 48.5374C45.7165 48.0189 44.8267 47.1028 44.3081 47.1028C43.7896 47.1028 43.2231 48.462 43.2231 48.9805C43.2231 49.499 44.259 49.4763 44.7776 49.4763C45.2961 49.4763 45.7165 49.0559 45.7165 48.5374Z" fill="white"/>
<path d="M33.0415 48.0416C33.0415 47.5231 31.6823 47.5722 31.1638 47.5722C31.1638 47.5722 30.6943 48.462 30.6943 48.9805C30.6943 49.499 31.7303 49.4763 32.2488 49.4763C32.7673 49.4763 33.0415 48.5602 33.0415 48.0416Z" fill="white"/>
</svg>
