<svg width="76" height="108" viewBox="0 0 76 108" fill="none" xmlns="http://www.w3.org/2000/svg">
<path fill-rule="evenodd" clip-rule="evenodd" d="M43.849 49.8808C44.2802 50.312 44.9436 50.581 45.8715 50.581C46.8081 50.581 47.7472 50.3055 48.4371 49.8188C49.1173 49.3389 49.5332 48.6755 49.5332 47.8583H50.6598C50.6598 49.1152 50.0003 50.0948 49.0866 50.7394C48.1825 51.3773 47.0091 51.7077 45.8715 51.7077C44.7253 51.7077 43.7457 51.3708 43.0524 50.6775C42.3591 49.9841 42.0221 49.0045 42.0221 47.8583H43.1488C43.1488 48.7862 43.4178 49.4496 43.849 49.8808Z" fill="white"/>
<path fill-rule="evenodd" clip-rule="evenodd" d="M33.3388 49.9428C32.9076 50.374 32.7162 50.581 31.7883 50.581C30.8518 50.581 29.466 50.1471 28.7761 49.6604C28.096 49.1806 28.1267 48.6755 28.1267 47.8583H27C27 49.1152 27.2129 49.9364 28.1267 50.581C29.0308 51.2189 30.6507 51.7077 31.7883 51.7077C32.9345 51.7077 33.4422 51.4327 34.1355 50.7394C34.8288 50.0461 35.6377 49.0045 35.6377 47.8583H34.5111C34.5111 48.7862 33.77 49.5116 33.3388 49.9428Z" fill="white"/>
<path fill-rule="evenodd" clip-rule="evenodd" d="M34.9375 64.2887C34.9375 66.0517 37.0669 66.1665 38.8299 66.1665C40.5929 66.1665 40.8955 66.0517 40.8955 64.2887H42.0221C42.0221 66.674 41.6846 67.1054 39.2994 67.1054C36.9141 67.1054 33.8108 66.674 33.8108 64.2887H34.9375Z" fill="white"/>
<path fill-rule="evenodd" clip-rule="evenodd" d="M43.849 49.8808C44.2802 50.312 44.9436 50.581 45.8715 50.581C46.8081 50.581 47.7472 50.3055 48.4371 49.8188C49.1173 49.3389 49.5332 48.6755 49.5332 47.8583H50.6598C50.6598 49.1152 50.0003 50.0948 49.0866 50.7394C48.1825 51.3773 47.0091 51.7077 45.8715 51.7077C44.7253 51.7077 43.7457 51.3708 43.0524 50.6775C42.3591 49.9841 42.0221 49.0045 42.0221 47.8583H43.1488C43.1488 48.7862 43.4178 49.4496 43.849 49.8808Z" stroke="white"/>
<path fill-rule="evenodd" clip-rule="evenodd" d="M33.3388 49.9428C32.9076 50.374 32.7162 50.581 31.7883 50.581C30.8518 50.581 29.466 50.1471 28.7761 49.6604C28.096 49.1806 28.1267 48.6755 28.1267 47.8583H27C27 49.1152 27.2129 49.9364 28.1267 50.581C29.0308 51.2189 30.6507 51.7077 31.7883 51.7077C32.9345 51.7077 33.4422 51.4327 34.1355 50.7394C34.8288 50.0461 35.6377 49.0045 35.6377 47.8583H34.5111C34.5111 48.7862 33.77 49.5116 33.3388 49.9428Z" stroke="white"/>
<path fill-rule="evenodd" clip-rule="evenodd" d="M34.9375 64.2887C34.9375 66.0517 37.0669 66.1665 38.8299 66.1665C40.5929 66.1665 40.8955 66.0517 40.8955 64.2887H42.0221C42.0221 66.674 41.6846 67.1054 39.2994 67.1054C36.9141 67.1054 33.8108 66.674 33.8108 64.2887H34.9375Z" stroke="white"/>
<path d="M36.4217 41.2861V38L27.5023 39.8778L26.094 41.2861H36.4217Z" stroke="white" stroke-width="2"/>
<path d="M41.83 41.2861V38.4694L51.2189 39.8778L54.9744 42.225L51.6883 41.7555L41.83 41.2861Z" stroke="white" stroke-width="2"/>
</svg>
