<svg width="76" height="108" viewBox="0 0 76 108" fill="none" xmlns="http://www.w3.org/2000/svg">
<path d="M45.0026 50.2929C45.0026 49.7744 44.1128 48.8583 43.5943 48.8583C43.0758 48.8583 42.5093 50.2175 42.5093 50.736C42.5093 51.2546 43.5452 51.2318 44.0637 51.2318C44.5823 51.2318 45.0026 50.8114 45.0026 50.2929Z" fill="white"/>
<path fill-rule="evenodd" clip-rule="evenodd" d="M49.697 61.3717C51.1489 61.3717 52.5137 59.699 52.5137 58.2471C52.5137 56.7952 51.1489 56.114 49.697 56.114C48.2452 56.114 46.8804 57.291 46.8804 58.7429C46.8804 60.1947 48.2452 61.3717 49.697 61.3717ZM49.697 62.4984C51.7712 62.4984 53.4526 60.3212 53.4526 58.2471C53.4526 56.173 51.7712 54.9873 49.697 54.9873C47.6229 54.9873 45.9415 56.6687 45.9415 58.7429C45.9415 60.817 47.6229 62.4984 49.697 62.4984Z" fill="white"/>
<path fill-rule="evenodd" clip-rule="evenodd" d="M25.7555 61.4393C27.2074 61.4393 28.5722 60.2623 28.5722 58.8104C28.5722 57.3585 27.2074 55.498 25.7555 55.498C24.3036 55.498 22.9389 57.291 22.9389 58.7429C22.9389 60.1947 24.3036 61.4393 25.7555 61.4393ZM25.7555 62.5659C27.8297 62.5659 29.5111 60.8845 29.5111 58.8104C29.5111 56.7363 27.8297 54.5591 25.7555 54.5591C23.6814 54.5591 22 56.7363 22 58.8104C22 60.8845 23.6814 62.5659 25.7555 62.5659Z" fill="white"/>
<path d="M32.3277 49.7972C32.3277 49.2786 30.9685 49.3277 30.4499 49.3277C30.4499 49.3277 29.9805 50.2175 29.9805 50.736C29.9805 51.2546 31.0164 51.2318 31.535 51.2318C32.0535 51.2318 32.3277 50.3157 32.3277 49.7972Z" fill="white"/>
<path d="M45.0026 50.2929C45.0026 49.7744 44.1128 48.8583 43.5943 48.8583C43.0758 48.8583 42.5093 50.2175 42.5093 50.736C42.5093 51.2546 43.5452 51.2318 44.0637 51.2318C44.5823 51.2318 45.0026 50.8114 45.0026 50.2929Z" stroke="white"/>
<path fill-rule="evenodd" clip-rule="evenodd" d="M49.697 61.3717C51.1489 61.3717 52.5137 59.699 52.5137 58.2471C52.5137 56.7952 51.1489 56.114 49.697 56.114C48.2452 56.114 46.8804 57.291 46.8804 58.7429C46.8804 60.1947 48.2452 61.3717 49.697 61.3717ZM49.697 62.4984C51.7712 62.4984 53.4526 60.3212 53.4526 58.2471C53.4526 56.173 51.7712 54.9873 49.697 54.9873C47.6229 54.9873 45.9415 56.6687 45.9415 58.7429C45.9415 60.817 47.6229 62.4984 49.697 62.4984Z" stroke="white"/>
<path fill-rule="evenodd" clip-rule="evenodd" d="M25.7555 61.4393C27.2074 61.4393 28.5722 60.2623 28.5722 58.8104C28.5722 57.3585 27.2074 55.498 25.7555 55.498C24.3036 55.498 22.9389 57.291 22.9389 58.7429C22.9389 60.1947 24.3036 61.4393 25.7555 61.4393ZM25.7555 62.5659C27.8297 62.5659 29.5111 60.8845 29.5111 58.8104C29.5111 56.7363 27.8297 54.5591 25.7555 54.5591C23.6814 54.5591 22 56.7363 22 58.8104C22 60.8845 23.6814 62.5659 25.7555 62.5659Z" stroke="white"/>
<path d="M32.3277 49.7972C32.3277 49.2786 30.9685 49.3277 30.4499 49.3277C30.4499 49.3277 29.9805 50.2175 29.9805 50.736C29.9805 51.2546 31.0164 51.2318 31.535 51.2318C32.0535 51.2318 32.3277 50.3157 32.3277 49.7972Z" stroke="white"/>
<line x1="34.8392" y1="64.7718" x2="40.4725" y2="65.7106" stroke="white" stroke-width="2"/>
<path d="M39.961 42.6944L40.4305 39.8778L46.5332 42.6944L51.6971 44.1027V45.5L39.961 42.6944Z" stroke="white" stroke-width="2"/>
<path d="M36.5527 40.8166V38L26.6945 41.2861L25.2861 42.225L25.2863 42.6944L36.5527 40.8166Z" stroke="white" stroke-width="2"/>
</svg>
