<svg width="76" height="108" viewBox="0 0 76 108" fill="none" xmlns="http://www.w3.org/2000/svg">
<path fill-rule="evenodd" clip-rule="evenodd" d="M27.3471 58.1535C27.3471 63.5462 31.6073 66.021 37 66.021C42.3927 66.021 46.1248 64.4851 46.1248 59.0924H47.2515C47.2515 65.1073 43.015 67.1477 37 67.1477C30.985 67.1477 26.2205 64.1684 26.2205 58.1535H27.3471Z" fill="white" stroke="white"/>
<path d="M44.7167 46.9132C44.7167 46.3947 43.8269 45.4785 43.3084 45.4785C42.7898 45.4785 42.2234 46.8378 42.2234 47.3563C42.2234 47.8748 43.2593 47.8521 43.7778 47.8521C44.2964 47.8521 44.7167 47.4317 44.7167 46.9132Z" fill="white"/>
<path d="M32.0418 46.4174C32.0418 45.8989 30.6826 45.948 30.164 45.948C30.164 45.948 29.6946 46.8378 29.6946 47.3563C29.6946 47.8748 30.7305 47.8521 31.249 47.8521C31.7676 47.8521 32.0418 46.936 32.0418 46.4174Z" fill="white"/>
<path d="M45.7085 38.2167L39.1443 38.9064L44.2414 39.8355L51.2402 42.2819L45.7085 38.2167Z" stroke="white" stroke-width="2"/>
<path d="M30.426 37.8744L36.2666 37.9675L31.5724 39.6052L25 43.2207L30.426 37.8744Z" stroke="white" stroke-width="2"/>
</svg>
