<svg width="31" height="23" viewBox="0 0 31 23" fill="none" xmlns="http://www.w3.org/2000/svg">
<g clip-path="url(#clip0)">
<path d="M0 5.88333H-0.25V6.13333V16.8667V17.1167H0H5.99001L12.0107 23.1762L12.0841 23.25H12.1881H15.2351H15.4851V23V0V-0.25H15.2351H12.1881H12.0841L12.0107 -0.176208L5.99001 5.88333H0ZM6.90211 15.1571L6.82879 15.0833H6.72477H1.77351V7.91667H6.72477H6.82879L6.90211 7.84287L12.9228 1.78333H13.4616V21.2167H12.9228L6.90211 15.1571ZM18.05 15.66L17.8747 15.8364L18.05 16.0126L19.1287 17.0967L19.306 17.2749L19.4833 17.0965L23.6144 12.9388L27.7455 17.0965L27.9229 17.275L28.1002 17.0965L29.1773 16.0125L29.3524 15.8363L29.1773 15.6601L25.0439 11.5L29.1773 7.33994L29.3523 7.16386L29.1775 6.98765L28.1003 5.90205L27.923 5.72328L27.7455 5.90196L23.6144 10.0612L19.4833 5.90196L19.3059 5.72341L19.1286 5.90193L18.0499 6.98753L17.8748 7.16376L18.05 7.33997L22.1848 11.5L18.05 15.66Z" fill="black" stroke="black" stroke-width="0.5"/>
</g>
<defs>
<clipPath id="clip0">
<rect width="31" height="23" fill="white"/>
</clipPath>
</defs>
</svg>
