<svg width="35" height="35" viewBox="0 0 35 35" fill="none" xmlns="http://www.w3.org/2000/svg">
<path d="M2.91675 12.875H2.66675V13.125V23.3333V23.5833H2.91675H8.64653L14.4066 29.3434L14.4799 29.4166H14.5834H17.5001H17.7501V29.1666V7.29163V7.04163H17.5001H14.5834H14.4799L14.4066 7.11485L8.64653 12.875H2.91675ZM9.53061 21.6982L9.45739 21.625H9.35383H4.62508V14.8333H9.35383H9.45739L9.53061 14.7601L15.2907 8.99996H15.7917V27.4583H15.2907L9.53061 21.6982ZM20.1875 22.1765L20.0105 22.3534L20.1876 22.5302L21.2201 23.5612L21.3969 23.7378L21.5735 23.5611L25.5209 19.6137L29.4683 23.5611L29.6451 23.7379L29.8219 23.5611L30.8529 22.5301L31.0297 22.3533L30.8529 22.1765L26.9055 18.2291L30.8529 14.2817L31.0296 14.1051L30.853 13.9283L29.822 12.8958L29.6452 12.7187L29.4683 12.8957L25.5209 16.8445L21.5736 12.8957L21.3968 12.7189L21.22 12.8957L20.1875 13.9282L20.0107 14.105L20.1875 14.2818L24.1363 18.2291L20.1875 22.1765Z" fill="black" stroke="black" stroke-width="0.5"/>
</svg>
