<svg width="76" height="75" viewBox="0 0 76 75" fill="none" xmlns="http://www.w3.org/2000/svg">
<g clip-path="url(#clip0)">
<path d="M10.3106 24C11.6196 23.932 12.8946 23.915 13.6936 23.915C14.9686 23.915 16.3796 23.932 17.6206 24L18.1306 21.756L17.4676 21.858C16.8556 22.912 16.7536 22.997 15.2236 23.031L13.2516 23.065V19.104L15.1386 19.138C15.9546 19.155 15.9546 19.104 16.2436 20.209H16.8216L17.0426 17.438H16.4306C16.0906 18.305 16.0056 18.356 14.9686 18.373L13.2516 18.39V14.701H15.1896C16.7536 14.701 16.8726 14.956 17.3656 15.789L17.9776 15.738L17.7226 13.766C16.5326 13.834 15.1046 13.851 14.3906 13.851C13.0306 13.851 11.1946 13.817 10.5146 13.8L10.3106 14.565L11.7216 14.786V23.099L10.5146 23.235L10.3106 24ZM19.8011 24C20.8721 23.966 22.2151 23.966 23.3711 24L23.5751 23.303L22.4021 23.048V19.886C22.4021 18.05 23.5751 17.421 24.6461 17.421C25.7001 17.421 26.4651 17.982 26.4651 19.342V23.167L25.4451 23.303L25.2581 24C26.3291 23.966 27.8081 23.966 28.9301 24L29.1341 23.303L27.8591 23.048V18.934C27.8591 16.894 26.8731 16.197 25.3771 16.197C24.3061 16.197 22.8781 16.86 22.2491 18.135V16.129C21.4331 16.435 20.5491 16.724 19.6991 17.115C20.1581 17.319 21.0081 17.693 21.0081 18.424V23.167L20.0051 23.303L19.8011 24ZM33.4727 27.23C36.6347 27.23 38.0627 25.598 38.0627 24.289C38.0627 23.354 37.3147 22.844 35.9717 22.844H33.7957C32.7757 22.844 32.4527 22.606 32.4527 22.164C32.4527 21.79 33.0647 21.433 33.9657 21.433C35.8527 21.433 37.3147 20.175 37.3147 18.594C37.3147 18.101 37.1787 17.693 36.9407 17.353L38.4197 17.591L38.6917 16.401C37.8077 16.605 37.3317 16.656 36.6177 16.656C35.9717 16.656 35.1047 16.367 34.5437 16.367C32.6737 16.367 31.1437 17.472 31.1437 19.104C31.1437 20.141 31.7727 20.872 32.6737 21.212C31.7217 21.501 31.2457 22.198 31.2457 22.742C31.2457 23.235 31.5007 23.626 31.9937 23.881C31.2287 24.34 30.7357 24.901 30.7357 25.564C30.7357 26.737 31.8747 27.23 33.4727 27.23ZM34.3907 20.634C33.3367 20.634 32.5547 19.903 32.5547 18.73C32.5547 17.914 32.9457 17.183 34.0847 17.183C35.1727 17.183 35.9037 17.863 35.9037 18.951C35.9037 19.818 35.4787 20.634 34.3907 20.634ZM32.1637 24.986C32.1637 24.629 32.2827 24.357 32.5717 24.051C32.7757 24.102 32.9967 24.119 33.2517 24.119H35.8187C36.6007 24.119 36.9067 24.408 36.9067 24.952C36.9067 25.7 35.9207 26.397 34.1187 26.397C32.8267 26.397 32.1637 25.904 32.1637 24.986ZM39.7672 24C40.8722 23.966 42.8782 23.966 44.0682 24L44.2552 23.235L42.7252 23.082V11.76L39.8862 12.253L39.6822 13.018H41.3312V23.116L39.9712 23.269L39.7672 24ZM47.1557 14.735L48.3287 13.579L47.1727 12.44L46.0167 13.579L47.1557 14.735ZM45.0307 24C46.0167 23.966 47.9547 23.966 48.9917 24L49.1957 23.303L47.8697 23.167V16.129C46.9517 16.435 46.0507 16.724 45.1327 17.115C45.6087 17.319 46.4587 17.744 46.4757 18.22V23.167L45.2177 23.303L45.0307 24ZM52.7082 24.204C54.3232 24.204 55.6832 23.184 55.6832 21.79C55.6832 20.736 55.1052 20.039 53.5582 19.529C52.0792 19.036 51.6202 18.713 51.6202 18.084C51.6202 17.574 52.1472 17.149 52.9462 17.149C53.5752 17.149 54.5612 17.642 55.1732 18.407L55.5812 17.081C55.2072 16.554 54.2722 16.248 53.5072 16.248C52.0452 16.248 50.6002 17.251 50.6002 18.611C50.6002 19.512 51.0762 20.175 52.6912 20.702C54.1532 21.178 54.5612 21.722 54.5612 22.266C54.5612 23.082 53.8982 23.337 53.1842 23.337C52.6232 23.337 51.4842 22.844 50.8722 22.062L50.5832 23.558C51.0932 23.949 52.0282 24.204 52.7082 24.204ZM57.3064 24C58.3774 23.966 59.7374 23.966 61.1484 24L61.3524 23.303L59.9074 23.048V19.886C59.9074 18.05 61.0804 17.421 62.1344 17.421C63.1714 17.421 63.9194 17.982 63.9194 19.342V23.167L62.9334 23.303L62.7294 24C63.8004 23.966 65.2114 23.966 66.3504 24L66.5544 23.303L65.3134 23.048V18.934C65.3134 16.894 64.3614 16.197 62.9674 16.197C61.9134 16.197 60.5874 16.86 59.8904 18.016L59.9414 11.76L57.1364 12.253L56.9494 13.018H58.5474V23.15L57.5104 23.303L57.3064 24Z" fill="black"/>
</g>
<defs>
<clipPath id="clip0">
<rect width="76" height="75" fill="white"/>
</clipPath>
</defs>
</svg>
