<svg width="76" height="75" viewBox="0 0 76 75" fill="none" xmlns="http://www.w3.org/2000/svg">
<g clip-path="url(#clip0)">
<path d="M14.5527 13.3584V17.8076H17.0264C17.6683 17.8076 18.0972 17.7108 18.313 17.5171C18.6007 17.2625 18.7612 16.8143 18.7944 16.1724H19.1016V20.0903H18.7944C18.717 19.5425 18.6395 19.1911 18.562 19.0361C18.4624 18.8424 18.2992 18.6903 18.0723 18.5796C17.8454 18.4689 17.4967 18.4136 17.0264 18.4136H14.5527V22.124C14.5527 22.6221 14.5749 22.9264 14.6191 23.0371C14.6634 23.1423 14.7409 23.228 14.8516 23.2944C14.9622 23.3553 15.1725 23.3857 15.4824 23.3857H17.3916C18.028 23.3857 18.4901 23.3415 18.7778 23.2529C19.0656 23.1644 19.3423 22.9901 19.6079 22.73C19.951 22.3869 20.3024 21.8695 20.6621 21.1777H20.9941L20.0229 24H11.3486V23.6929H11.7471C12.0127 23.6929 12.2645 23.6292 12.5024 23.502C12.6795 23.4134 12.7985 23.2806 12.8594 23.1035C12.9258 22.9264 12.959 22.564 12.959 22.0161V14.7031C12.959 13.9893 12.887 13.5493 12.7432 13.3833C12.5439 13.1619 12.2119 13.0513 11.7471 13.0513H11.3486V12.7441H20.0229L20.1475 15.2095H19.8237C19.7075 14.6174 19.5775 14.2106 19.4336 13.9893C19.2952 13.7679 19.0877 13.5991 18.811 13.4829C18.5897 13.3999 18.1995 13.3584 17.6406 13.3584H14.5527ZM26.8379 16.1724V18.7622H26.564C26.3537 17.9487 26.0825 17.3953 25.7505 17.1021C25.424 16.8088 25.0062 16.6621 24.4971 16.6621C24.1097 16.6621 23.797 16.7645 23.5591 16.9692C23.3211 17.174 23.2021 17.4009 23.2021 17.6499C23.2021 17.9598 23.2907 18.2254 23.4678 18.4468C23.6393 18.6737 23.988 18.9144 24.5137 19.1689L25.7256 19.7583C26.849 20.3062 27.4106 21.0283 27.4106 21.9248C27.4106 22.6165 27.1478 23.1755 26.6221 23.6016C26.1019 24.0221 25.5181 24.2324 24.8706 24.2324C24.4058 24.2324 23.8745 24.1494 23.2769 23.9834C23.0942 23.9281 22.9448 23.9004 22.8286 23.9004C22.7013 23.9004 22.6017 23.9723 22.5298 24.1162H22.2559V21.4019H22.5298C22.6847 22.1766 22.9808 22.7604 23.418 23.1533C23.8551 23.5462 24.3449 23.7427 24.8872 23.7427C25.269 23.7427 25.5789 23.632 25.8169 23.4106C26.0604 23.1838 26.1821 22.9126 26.1821 22.5972C26.1821 22.2153 26.0465 21.8944 25.7754 21.6343C25.5098 21.3742 24.9757 21.0449 24.1733 20.6465C23.3709 20.248 22.8452 19.8883 22.5962 19.5674C22.3472 19.252 22.2227 18.8535 22.2227 18.3721C22.2227 17.7467 22.4357 17.2238 22.8618 16.8032C23.2935 16.3826 23.8496 16.1724 24.5303 16.1724C24.8291 16.1724 25.1916 16.236 25.6177 16.3633C25.8999 16.4463 26.0881 16.4878 26.1821 16.4878C26.2707 16.4878 26.3398 16.4684 26.3896 16.4297C26.4395 16.391 26.4976 16.3052 26.564 16.1724H26.8379ZM28 17.1519L30.3408 16.2056H30.6562V17.9819C31.0492 17.3123 31.4421 16.8447 31.835 16.5791C32.2334 16.3079 32.6512 16.1724 33.0884 16.1724C33.8521 16.1724 34.4884 16.4712 34.9976 17.0688C35.6229 17.7993 35.9355 18.7511 35.9355 19.9243C35.9355 21.2358 35.5592 22.3205 34.8066 23.1782C34.1868 23.881 33.4066 24.2324 32.4658 24.2324C32.0563 24.2324 31.7021 24.1743 31.4033 24.0581C31.182 23.9751 30.9329 23.8091 30.6562 23.5601V25.876C30.6562 26.3962 30.6867 26.7254 30.7476 26.8638C30.814 27.0076 30.9246 27.1211 31.0796 27.2041C31.2401 27.2871 31.5278 27.3286 31.9429 27.3286V27.6357H27.9585V27.3286H28.166C28.4704 27.3341 28.7305 27.276 28.9463 27.1543C29.0514 27.0934 29.1317 26.9938 29.187 26.8555C29.2479 26.7227 29.2783 26.3796 29.2783 25.8262V18.6377C29.2783 18.1452 29.2562 17.8325 29.2119 17.6997C29.1676 17.5669 29.0957 17.4673 28.9961 17.4009C28.902 17.3345 28.772 17.3013 28.606 17.3013C28.4731 17.3013 28.3044 17.34 28.0996 17.4175L28 17.1519ZM30.6562 18.4717V21.3105C30.6562 21.9248 30.6812 22.3288 30.731 22.5225C30.8084 22.8434 30.9966 23.1257 31.2954 23.3691C31.5998 23.6126 31.9816 23.7344 32.4409 23.7344C32.9943 23.7344 33.4425 23.5186 33.7856 23.0869C34.2339 22.5225 34.458 21.7284 34.458 20.7046C34.458 19.5425 34.2035 18.6488 33.6943 18.0234C33.3402 17.5918 32.9196 17.376 32.4326 17.376C32.167 17.376 31.9041 17.4424 31.644 17.5752C31.4448 17.6748 31.1156 17.9736 30.6562 18.4717ZM41.356 22.9043C40.5757 23.5075 40.0859 23.8561 39.8867 23.9502C39.5879 24.0885 39.2697 24.1577 38.9321 24.1577C38.4064 24.1577 37.972 23.9779 37.6289 23.6182C37.2913 23.2585 37.1226 22.7853 37.1226 22.1987C37.1226 21.828 37.2056 21.507 37.3716 21.2358C37.5985 20.8595 37.9914 20.5054 38.5503 20.1733C39.1147 19.8413 40.05 19.4373 41.356 18.9614V18.6626C41.356 17.9045 41.2342 17.3843 40.9907 17.1021C40.7528 16.8198 40.4041 16.6787 39.9448 16.6787C39.5962 16.6787 39.3195 16.7728 39.1147 16.9609C38.9045 17.1491 38.7993 17.3649 38.7993 17.6084L38.8159 18.0898C38.8159 18.3444 38.7495 18.5409 38.6167 18.6792C38.4894 18.8175 38.3206 18.8867 38.1104 18.8867C37.9056 18.8867 37.7368 18.8148 37.604 18.6709C37.4767 18.527 37.4131 18.3306 37.4131 18.0815C37.4131 17.6056 37.6566 17.1685 38.1436 16.77C38.6305 16.3716 39.314 16.1724 40.1938 16.1724C40.869 16.1724 41.4224 16.2858 41.854 16.5127C42.1805 16.6842 42.4212 16.9526 42.5762 17.3179C42.6758 17.5558 42.7256 18.0428 42.7256 18.7788V21.3604C42.7256 22.0853 42.7394 22.5308 42.7671 22.6968C42.7948 22.8573 42.839 22.9652 42.8999 23.0205C42.9663 23.0758 43.041 23.1035 43.124 23.1035C43.2126 23.1035 43.29 23.0841 43.3564 23.0454C43.4727 22.9735 43.6968 22.7715 44.0288 22.4395V22.9043C43.409 23.7344 42.8169 24.1494 42.2524 24.1494C41.9813 24.1494 41.7655 24.0553 41.605 23.8672C41.4445 23.679 41.3615 23.3581 41.356 22.9043ZM41.356 22.3647V19.4678C40.5203 19.7998 39.9808 20.035 39.7373 20.1733C39.3001 20.4168 38.9875 20.6714 38.7993 20.937C38.6112 21.2026 38.5171 21.4932 38.5171 21.8086C38.5171 22.207 38.6361 22.5391 38.874 22.8047C39.112 23.0648 39.3859 23.1948 39.6958 23.1948C40.1164 23.1948 40.6698 22.9181 41.356 22.3647ZM46.8179 17.7827C47.7088 16.7091 48.5583 16.1724 49.3662 16.1724C49.7812 16.1724 50.1382 16.2775 50.437 16.4878C50.7358 16.6925 50.9738 17.0329 51.1509 17.5088C51.2726 17.8408 51.3335 18.3499 51.3335 19.0361V22.2817C51.3335 22.7632 51.3722 23.0897 51.4497 23.2612C51.5106 23.3996 51.6074 23.5075 51.7402 23.585C51.8786 23.6624 52.1304 23.7012 52.4956 23.7012V24H48.7354V23.7012H48.8931C49.2472 23.7012 49.4935 23.6486 49.6318 23.5435C49.7757 23.4328 49.8753 23.2723 49.9307 23.062C49.9528 22.979 49.9639 22.7189 49.9639 22.2817V19.1689C49.9639 18.4772 49.8726 17.9764 49.6899 17.6665C49.5129 17.3511 49.2113 17.1934 48.7852 17.1934C48.1266 17.1934 47.4709 17.5531 46.8179 18.2725V22.2817C46.8179 22.7964 46.8483 23.1146 46.9092 23.2363C46.9867 23.3968 47.0918 23.5158 47.2246 23.5933C47.363 23.6652 47.6396 23.7012 48.0547 23.7012V24H44.2944V23.7012H44.4604C44.8478 23.7012 45.1079 23.6043 45.2407 23.4106C45.3791 23.2114 45.4482 22.8351 45.4482 22.2817V19.4595C45.4482 18.5464 45.4261 17.9902 45.3818 17.791C45.3431 17.5918 45.2795 17.4562 45.1909 17.3843C45.1079 17.3123 44.9945 17.2764 44.8506 17.2764C44.6956 17.2764 44.5103 17.3179 44.2944 17.4009L44.1699 17.1021L46.4609 16.1724H46.8179V17.7827ZM45.938 14.894H45.6724C45.6945 14.1359 45.8522 13.5881 46.1455 13.2505C46.4388 12.9129 46.8013 12.7441 47.2329 12.7441C47.4598 12.7441 47.6673 12.7801 47.8555 12.8521C48.1045 12.9461 48.4559 13.1453 48.9097 13.4497C49.369 13.7485 49.7093 13.8979 49.9307 13.8979C50.1077 13.8979 50.2627 13.8232 50.3955 13.6738C50.5339 13.5244 50.6418 13.2145 50.7192 12.7441H50.9766C50.9821 13.2588 50.9129 13.6683 50.769 13.9727C50.6307 14.2715 50.4315 14.5067 50.1714 14.6782C49.9168 14.8442 49.6595 14.9272 49.3994 14.9272C48.9622 14.9272 48.4199 14.7059 47.7725 14.2632C47.4238 14.0252 47.1886 13.8813 47.0669 13.8315C46.9451 13.7817 46.8262 13.7568 46.71 13.7568C46.4831 13.7568 46.3032 13.8564 46.1704 14.0557C46.1095 14.1497 46.0321 14.4292 45.938 14.894ZM56.8203 16.1724C57.9714 16.1724 58.8955 16.6095 59.5928 17.4839C60.1849 18.231 60.481 19.0887 60.481 20.0571C60.481 20.7378 60.3177 21.4268 59.9912 22.124C59.6647 22.8213 59.2137 23.347 58.6382 23.7012C58.0682 24.0553 57.4318 24.2324 56.729 24.2324C55.5835 24.2324 54.6732 23.7759 53.998 22.8628C53.4281 22.0936 53.1431 21.2303 53.1431 20.2729C53.1431 19.5757 53.3146 18.884 53.6577 18.1978C54.0063 17.506 54.4629 16.9969 55.0273 16.6704C55.5918 16.3384 56.1895 16.1724 56.8203 16.1724ZM56.563 16.7119C56.2697 16.7119 55.9736 16.8005 55.6748 16.9775C55.3815 17.1491 55.1436 17.4535 54.9609 17.8906C54.7783 18.3278 54.687 18.8895 54.687 19.5757C54.687 20.6825 54.9056 21.637 55.3428 22.4395C55.7855 23.2419 56.3665 23.6431 57.0859 23.6431C57.6227 23.6431 58.0654 23.4217 58.4141 22.979C58.7627 22.5363 58.937 21.7754 58.937 20.6963C58.937 19.346 58.6465 18.2835 58.0654 17.5088C57.6725 16.9775 57.1717 16.7119 56.563 16.7119ZM64.2163 12.1963V22.2817C64.2163 22.7576 64.2495 23.0731 64.3159 23.228C64.3879 23.383 64.4958 23.502 64.6396 23.585C64.7835 23.6624 65.0519 23.7012 65.4448 23.7012V24H61.7178V23.7012C62.0664 23.7012 62.3044 23.6652 62.4316 23.5933C62.5589 23.5213 62.6585 23.4023 62.7305 23.2363C62.8024 23.0703 62.8384 22.7521 62.8384 22.2817V15.3755C62.8384 14.5177 62.819 13.992 62.7803 13.7983C62.7415 13.5991 62.6779 13.4635 62.5894 13.3916C62.5063 13.3197 62.3984 13.2837 62.2656 13.2837C62.1217 13.2837 61.9391 13.328 61.7178 13.4165L61.5767 13.126L63.8428 12.1963H64.2163Z" fill="black"/>
</g>
<defs>
<clipPath id="clip0">
<rect width="76" height="75" fill="white"/>
</clipPath>
</defs>
</svg>
