<svg width="76" height="75" viewBox="0 0 76 75" fill="none" xmlns="http://www.w3.org/2000/svg">
<g clip-path="url(#clip0)">
<path d="M25.3755 24.289L26.6165 23.405C26.4125 22.674 26.2935 21.977 26.2935 20.838C26.2935 19.104 26.4125 17.71 26.4125 16.962C26.4125 15.806 26.0895 15.364 24.7635 15.364H21.2445C20.2075 15.364 19.6295 15.245 18.5415 14.565L17.8445 16.146L18.7115 16.622C19.5105 17.064 19.6295 17.336 19.6295 18.509V22.3C19.1365 22.3 18.4055 22.368 18.0485 22.436L17.7255 24.187C18.1675 24.085 19.2555 24 19.8505 24H20.5985L21.0065 22.453C20.7005 21.484 20.5815 20.549 20.5815 19.223C20.5815 18.747 20.5985 17.54 20.6665 17.081H24.1855C25.0525 17.081 25.3245 17.353 25.3245 18.577C25.3245 19.478 25.1375 21.246 25.1375 22.521C25.1375 23.167 25.1885 23.966 25.3755 24.289ZM29.6792 20.94H30.7842L31.7532 18.662C32.2802 17.404 32.2972 16.894 31.3282 16.214L29.1522 14.684L28.3532 16.231L30.0022 17.37C30.6822 17.829 30.6992 18.101 30.3592 19.053L29.6792 20.94ZM38.8187 24.442L40.0597 23.558C39.8557 23.065 39.7367 22.419 39.7367 21.178C39.7367 19.274 39.9747 17.778 39.9747 16.962C39.9747 15.806 39.6347 15.364 38.3257 15.364H36.7277C35.5207 15.364 35.3337 15.296 34.4327 14.633L33.6337 16.333C34.0417 16.877 34.6537 17.132 36.5407 17.132H37.6967C38.5807 17.132 38.8187 17.387 38.8187 18.577C38.8187 19.512 38.5807 21.399 38.5807 22.657C38.5807 23.32 38.6317 24.102 38.8187 24.442ZM44.996 24H49.246L49.552 22.419C48.804 22.317 48.515 22.113 48.515 21.501C48.515 20.056 48.736 18.203 48.736 17.132C48.736 15.908 48.158 15.364 46.951 15.364H45.217C44.265 15.364 43.67 15.228 43.143 14.633L42.31 16.418C42.701 16.826 43.347 17.081 44.843 17.081H46.254C47.24 17.081 47.495 17.472 47.495 18.628V22.3H44.996C43.874 22.3 42.99 22.351 42.548 22.589L42.242 24.357C42.82 24.102 43.806 24 44.996 24ZM53.8755 23.847L55.1845 23.286C55.8645 22.997 56.3915 22.691 56.8335 22.402C57.3095 21.892 57.7345 21.28 58.0915 20.549C58.5165 19.699 58.8905 18.05 58.8905 17.149C58.8905 16.605 58.7545 16.265 58.2275 15.908L56.5615 14.786L55.8645 16.333L57.1565 17.098C57.6155 17.37 57.7345 17.438 57.7345 18.05C57.7345 18.985 57.6155 19.801 57.2245 20.481C56.6125 21.127 55.6435 21.518 54.7255 21.892C54.2325 20.906 54.0625 19.886 54.0625 17.421C54.0625 16.299 53.9435 16.095 53.3655 15.721L51.8865 14.752L51.0535 16.418L52.4985 17.302C53.0595 17.642 53.1955 17.795 53.1955 18.492C53.1955 20.209 53.3995 21.416 53.6035 22.334C52.7365 22.674 52.0905 22.98 51.3425 23.388L51.2575 25.275C52.1415 24.697 52.9745 24.238 53.8755 23.847Z" fill="black"/>
</g>
<defs>
<clipPath id="clip0">
<rect width="76" height="75" fill="white"/>
</clipPath>
</defs>
</svg>
