<svg width="76" height="75" viewBox="0 0 76 75" fill="none" xmlns="http://www.w3.org/2000/svg">
<g clip-path="url(#clip0)">
<path d="M6.9834 17.1519L9.32422 16.2056H9.63965V17.9819C10.0326 17.3123 10.4255 16.8447 10.8184 16.5791C11.2168 16.3079 11.6346 16.1724 12.0718 16.1724C12.8354 16.1724 13.4718 16.4712 13.981 17.0688C14.6063 17.7993 14.9189 18.7511 14.9189 19.9243C14.9189 21.2358 14.5426 22.3205 13.79 23.1782C13.1702 23.881 12.39 24.2324 11.4492 24.2324C11.0397 24.2324 10.6855 24.1743 10.3867 24.0581C10.1654 23.9751 9.91634 23.8091 9.63965 23.5601V25.876C9.63965 26.3962 9.67008 26.7254 9.73096 26.8638C9.79736 27.0076 9.90804 27.1211 10.063 27.2041C10.2235 27.2871 10.5112 27.3286 10.9263 27.3286V27.6357H6.94189V27.3286H7.14941C7.45378 27.3341 7.71387 27.276 7.92969 27.1543C8.03483 27.0934 8.11507 26.9938 8.17041 26.8555C8.23128 26.7227 8.26172 26.3796 8.26172 25.8262V18.6377C8.26172 18.1452 8.23958 17.8325 8.19531 17.6997C8.15104 17.5669 8.0791 17.4673 7.97949 17.4009C7.88542 17.3345 7.75537 17.3013 7.58936 17.3013C7.45654 17.3013 7.28776 17.34 7.08301 17.4175L6.9834 17.1519ZM9.63965 18.4717V21.3105C9.63965 21.9248 9.66455 22.3288 9.71436 22.5225C9.79183 22.8434 9.97998 23.1257 10.2788 23.3691C10.5832 23.6126 10.965 23.7344 11.4243 23.7344C11.9777 23.7344 12.4259 23.5186 12.769 23.0869C13.2173 22.5225 13.4414 21.7284 13.4414 20.7046C13.4414 19.5425 13.1868 18.6488 12.6777 18.0234C12.3236 17.5918 11.903 17.376 11.416 17.376C11.1504 17.376 10.8875 17.4424 10.6274 17.5752C10.4282 17.6748 10.099 17.9736 9.63965 18.4717ZM15.3672 16.3965H18.9116V16.7036H18.7373C18.4883 16.7036 18.3001 16.759 18.1729 16.8696C18.0511 16.9748 17.9902 17.1076 17.9902 17.2681C17.9902 17.4839 18.0815 17.7827 18.2642 18.1646L20.1152 21.9995L21.8169 17.7993C21.911 17.5724 21.958 17.3483 21.958 17.127C21.958 17.0273 21.9386 16.9526 21.8999 16.9028C21.8556 16.842 21.7865 16.7949 21.6924 16.7617C21.5983 16.723 21.4323 16.7036 21.1943 16.7036V16.3965H23.668V16.7036C23.4632 16.7257 23.3055 16.77 23.1948 16.8364C23.0841 16.9028 22.9624 17.0273 22.8296 17.21C22.7798 17.2874 22.6857 17.5005 22.5474 17.8491L19.4512 25.436C19.1523 26.172 18.7594 26.7282 18.2725 27.1045C17.791 27.4808 17.3262 27.6689 16.8779 27.6689C16.5514 27.6689 16.283 27.5749 16.0728 27.3867C15.8625 27.1986 15.7573 26.9827 15.7573 26.7393C15.7573 26.5068 15.832 26.3187 15.9814 26.1748C16.1364 26.0365 16.3467 25.9673 16.6123 25.9673C16.7949 25.9673 17.0439 26.0282 17.3594 26.1499C17.5807 26.2329 17.7191 26.2744 17.7744 26.2744C17.9404 26.2744 18.1203 26.1886 18.314 26.0171C18.5132 25.8455 18.7124 25.5135 18.9116 25.021L19.4512 23.7012L16.7202 17.9653C16.6372 17.7938 16.5044 17.5807 16.3218 17.3262C16.1834 17.1325 16.07 17.0024 15.9814 16.936C15.8542 16.8475 15.6494 16.77 15.3672 16.7036V16.3965ZM30.7568 21.1113C30.5521 22.113 30.1509 22.8849 29.5532 23.4272C28.9556 23.964 28.2943 24.2324 27.5693 24.2324C26.7061 24.2324 25.9535 23.87 25.3115 23.145C24.6696 22.4201 24.3486 21.4406 24.3486 20.2065C24.3486 19.0112 24.7028 18.04 25.4111 17.293C26.125 16.5459 26.98 16.1724 27.9761 16.1724C28.7231 16.1724 29.3374 16.3716 29.8188 16.77C30.3003 17.1629 30.541 17.5724 30.541 17.9985C30.541 18.2088 30.4718 18.3804 30.3335 18.5132C30.2007 18.6405 30.0125 18.7041 29.769 18.7041C29.4425 18.7041 29.1963 18.599 29.0303 18.3887C28.9362 18.2725 28.8726 18.0511 28.8394 17.7246C28.8117 17.3981 28.701 17.1491 28.5073 16.9775C28.3136 16.8115 28.0452 16.7285 27.7021 16.7285C27.1488 16.7285 26.7033 16.9333 26.3657 17.3428C25.9175 17.8851 25.6934 18.6017 25.6934 19.4927C25.6934 20.4002 25.9147 21.2026 26.3574 21.8999C26.8057 22.5916 27.4089 22.9375 28.167 22.9375C28.7093 22.9375 29.1963 22.7521 29.6279 22.3813C29.9323 22.1268 30.2284 21.6647 30.5161 20.9951L30.7568 21.1113ZM38.3105 21.1113C38.1058 22.113 37.7046 22.8849 37.1069 23.4272C36.5093 23.964 35.848 24.2324 35.123 24.2324C34.2598 24.2324 33.5072 23.87 32.8652 23.145C32.2233 22.4201 31.9023 21.4406 31.9023 20.2065C31.9023 19.0112 32.2565 18.04 32.9648 17.293C33.6787 16.5459 34.5337 16.1724 35.5298 16.1724C36.2769 16.1724 36.8911 16.3716 37.3726 16.77C37.854 17.1629 38.0947 17.5724 38.0947 17.9985C38.0947 18.2088 38.0256 18.3804 37.8872 18.5132C37.7544 18.6405 37.5662 18.7041 37.3228 18.7041C36.9963 18.7041 36.75 18.599 36.584 18.3887C36.4899 18.2725 36.4263 18.0511 36.3931 17.7246C36.3654 17.3981 36.2547 17.1491 36.061 16.9775C35.8674 16.8115 35.599 16.7285 35.2559 16.7285C34.7025 16.7285 34.257 16.9333 33.9194 17.3428C33.4712 17.8851 33.2471 18.6017 33.2471 19.4927C33.2471 20.4002 33.4684 21.2026 33.9111 21.8999C34.3594 22.5916 34.9626 22.9375 35.7207 22.9375C36.263 22.9375 36.75 22.7521 37.1816 22.3813C37.486 22.1268 37.7821 21.6647 38.0698 20.9951L38.3105 21.1113ZM47.0347 24H44.7935C44.0962 22.9873 43.4653 21.9497 42.9009 20.8872C42.7681 20.6437 42.6463 20.4639 42.5356 20.3477C42.4305 20.2259 42.2839 20.165 42.0957 20.165C42.0293 20.165 41.9242 20.1706 41.7803 20.1816V22.2153C41.7803 22.7632 41.8107 23.1146 41.8716 23.2695C41.938 23.4189 42.0542 23.5269 42.2202 23.5933C42.3862 23.6597 42.6657 23.6929 43.0586 23.6929V24H39.2568V23.6929C39.7493 23.6929 40.0648 23.6043 40.2031 23.4272C40.3415 23.2446 40.4106 22.8407 40.4106 22.2153V18.1812C40.4106 17.589 40.3802 17.2404 40.3193 17.1353C40.2585 17.0246 40.1644 16.9277 40.0371 16.8447C39.9098 16.7562 39.6497 16.7119 39.2568 16.7119V16.3965H43.0586V16.7119C42.5993 16.7119 42.3143 16.7451 42.2036 16.8115C42.0985 16.8779 42.0016 16.9609 41.9131 17.0605C41.8245 17.1546 41.7803 17.5282 41.7803 18.1812V19.6753C41.9076 19.6864 41.9933 19.6919 42.0376 19.6919C42.3752 19.6919 42.6906 19.5978 42.9839 19.4097C43.2827 19.216 43.5483 18.8092 43.7808 18.1895C43.9966 17.6029 44.1737 17.2072 44.312 17.0024C44.4559 16.7977 44.6523 16.6317 44.9014 16.5044C45.1559 16.3716 45.4215 16.3052 45.6982 16.3052C45.9971 16.3052 46.235 16.3771 46.4121 16.521C46.5892 16.6649 46.6777 16.853 46.6777 17.0854C46.6777 17.2791 46.6141 17.4451 46.4868 17.5835C46.3595 17.7163 46.1825 17.7827 45.9556 17.7827C45.8338 17.7827 45.6816 17.7495 45.499 17.6831C45.2666 17.6001 45.0895 17.5586 44.9678 17.5586C44.7132 17.5586 44.5029 17.7772 44.3369 18.2144C44.1488 18.7179 44.0104 19.0444 43.9219 19.1938C43.8333 19.3377 43.6646 19.5314 43.4155 19.7749C43.5871 19.8247 43.7725 19.952 43.9717 20.1567C44.1764 20.3615 44.5527 20.9453 45.1006 21.9082C45.5378 22.6774 45.8643 23.1644 46.0801 23.3691C46.3014 23.5739 46.6196 23.6818 47.0347 23.6929V24ZM50.0479 21.6592L53.335 17.8574C53.3239 17.4313 53.2437 17.1353 53.0942 16.9692C52.9448 16.8032 52.6875 16.7174 52.3223 16.7119V16.3965H55.8584V16.7119C55.4876 16.7119 55.2386 16.7507 55.1113 16.8281C54.984 16.9001 54.8844 16.9914 54.8125 17.1021C54.7406 17.2127 54.7046 17.5724 54.7046 18.1812V22.2153C54.7046 22.8019 54.735 23.1533 54.7959 23.2695C54.8568 23.3802 54.9508 23.4798 55.0781 23.5684C55.2109 23.6514 55.471 23.6929 55.8584 23.6929V24H52.1812V23.6929C52.6405 23.6929 52.9476 23.6099 53.1025 23.4438C53.2575 23.2723 53.335 22.8628 53.335 22.2153V18.6377L50.0479 22.4478C50.0589 22.9181 50.1253 23.2419 50.2471 23.4189C50.3688 23.596 50.6317 23.6873 51.0356 23.6929V24H47.5244V23.6929C48.0169 23.6929 48.3324 23.6043 48.4707 23.4272C48.609 23.2446 48.6782 22.8407 48.6782 22.2153V18.1812C48.6782 17.589 48.6478 17.2404 48.5869 17.1353C48.526 17.0246 48.432 16.9277 48.3047 16.8447C48.1774 16.7562 47.9173 16.7119 47.5244 16.7119V16.3965H51.2017V16.7119C50.8309 16.7119 50.5819 16.7507 50.4546 16.8281C50.3273 16.9001 50.2277 16.9914 50.1558 17.1021C50.0838 17.2127 50.0479 17.5724 50.0479 18.1812V21.6592ZM58.0664 13.3501C58.0664 13.1564 58.119 13.0015 58.2241 12.8853C58.3348 12.7635 58.4731 12.7026 58.6392 12.7026C59.0044 12.7026 59.3281 13.0457 59.6104 13.7319C59.7708 14.1193 59.9535 14.3628 60.1582 14.4624C60.3685 14.5565 60.5732 14.6035 60.7725 14.6035C61.1211 14.6035 61.384 14.5288 61.561 14.3794C61.7381 14.23 61.9041 13.9616 62.0591 13.5742C62.2915 12.9987 62.5765 12.7109 62.9141 12.7109C63.0801 12.7109 63.2212 12.7718 63.3374 12.8936C63.4536 13.0098 63.5117 13.1564 63.5117 13.3335C63.5117 13.7596 63.2323 14.1553 62.6733 14.5205C62.1144 14.8857 61.4863 15.0684 60.7891 15.0684C59.876 15.0684 59.1925 14.9023 58.7388 14.5703C58.2905 14.2383 58.0664 13.8315 58.0664 13.3501ZM59.1455 21.6592L62.4326 17.8574C62.4215 17.4313 62.3413 17.1353 62.1919 16.9692C62.0425 16.8032 61.7852 16.7174 61.4199 16.7119V16.3965H64.9561V16.7119C64.5853 16.7119 64.3363 16.7507 64.209 16.8281C64.0817 16.9001 63.9821 16.9914 63.9102 17.1021C63.8382 17.2127 63.8022 17.5724 63.8022 18.1812V22.2153C63.8022 22.8019 63.8327 23.1533 63.8936 23.2695C63.9544 23.3802 64.0485 23.4798 64.1758 23.5684C64.3086 23.6514 64.5687 23.6929 64.9561 23.6929V24H61.2788V23.6929C61.7381 23.6929 62.0452 23.6099 62.2002 23.4438C62.3551 23.2723 62.4326 22.8628 62.4326 22.2153V18.6377L59.1455 22.4478C59.1566 22.9181 59.223 23.2419 59.3447 23.4189C59.4665 23.596 59.7293 23.6873 60.1333 23.6929V24H56.6221V23.6929C57.1146 23.6929 57.43 23.6043 57.5684 23.4272C57.7067 23.2446 57.7759 22.8407 57.7759 22.2153V18.1812C57.7759 17.589 57.7454 17.2404 57.6846 17.1353C57.6237 17.0246 57.5296 16.9277 57.4023 16.8447C57.2751 16.7562 57.015 16.7119 56.6221 16.7119V16.3965H60.2993V16.7119C59.9285 16.7119 59.6795 16.7507 59.5522 16.8281C59.425 16.9001 59.3254 16.9914 59.2534 17.1021C59.1815 17.2127 59.1455 17.5724 59.1455 18.1812V21.6592Z" fill="black"/>
</g>
<defs>
<clipPath id="clip0">
<rect width="76" height="75" fill="white"/>
</clipPath>
</defs>
</svg>
