<svg width="38" height="36" viewBox="0 0 38 36" fill="none" xmlns="http://www.w3.org/2000/svg">
<line x1="14.6" y1="5" x2="14.6" y2="10" stroke="black" stroke-width="1.2"/>
<line x1="24.6" y1="5" x2="24.6" y2="10" stroke="black" stroke-width="1.2"/>
<path d="M17 33V9H12V33" stroke="black" stroke-width="1.2"/>
<path d="M27 33V9H22V33" stroke="black" stroke-width="1.2"/>
<path d="M13.5079 3.4L14.5 2.02528L15.4921 3.4H13.5079Z" fill="black" stroke="black" stroke-width="1.2"/>
<path d="M23.5079 3.4L24.5 2.02528L25.4921 3.4H23.5079Z" fill="black" stroke="black" stroke-width="1.2"/>
<path d="M16 4C16 4.55228 15.3284 5 14.5 5C13.6716 5 13 4.55228 13 4" stroke="black" stroke-width="1.2"/>
<path d="M26 4C26 4.55228 25.3284 5 24.5 5C23.6716 5 23 4.55228 23 4" stroke="black" stroke-width="1.2"/>
<rect x="9.6" y="30.6" width="19.8" height="2.8" stroke="black" stroke-width="1.2"/>
</svg>
