<svg width="38" height="75" viewBox="0 0 38 75" fill="none" xmlns="http://www.w3.org/2000/svg">
<path d="M13.4212 40.6742L15.7149 42.9281M22.7668 40.6742L20.473 42.9281M13.785 48.8855L16.0788 46.6316M22.4029 48.8855L20.1091 46.6316M12.0812 44.5728H15.3251M24.1067 44.5728H20.8628M18.1365 39V42.1875M9.12076 50.2157L11.2251 51.2248M15.2587 48.1406L14.2318 50.2084M11.0905 55.8178L12.1175 53.7501M17.2142 53.7477L15.1098 52.7387M9 53.1774L11.2141 52.4288M17.2085 50.4025L14.9944 51.151M12.0307 48.0863L12.7926 50.262M26.028 47.8667L26.584 49.8546M31 50.6461L28.977 51.1924M23.2785 52.4397L25.3016 51.8934M28.405 55.3053L27.849 53.3174M23.8982 49.5011L25.7219 50.5204M30.6588 53.2802L28.8351 52.2608M29.2018 48.5782L28.1644 50.3701M18.1368 47.5V64.5M25.7634 53.7182L17.2384 70.9111M13.8148 54.111L17.2317 66.411M11.0002 58.125H26.1384L22.8945 73H14.2441L11.0002 58.125Z" stroke="black" stroke-width="1.2"/>
</svg>
