<svg width="38" height="36" viewBox="0 0 38 36" fill="none" xmlns="http://www.w3.org/2000/svg">
<path d="M13.4212 1.67422L15.7149 3.92812M22.7668 1.67422L20.473 3.92812M13.785 9.88551L16.0788 7.63161M22.4029 9.88551L20.1091 7.63161M12.0812 5.57278H15.3251M24.1067 5.57278H20.8628M18.1365 0V3.1875M9.12076 11.2157L11.2251 12.2248M15.2587 9.14063L14.2318 11.2084M11.0905 16.8178L12.1175 14.7501M17.2142 14.7477L15.1098 13.7387M9 14.1774L11.2141 13.4288M17.2085 11.4025L14.9944 12.151M12.0307 9.08634L12.7926 11.262M26.028 8.86672L26.584 10.8546M31 11.6461L28.977 12.1924M23.2785 13.4397L25.3016 12.8934M28.405 16.3053L27.849 14.3174M23.8982 10.5011L25.7219 11.5204M30.6588 14.2802L28.8351 13.2608M29.2018 9.57823L28.1644 11.3701M18.1368 8.5V25.5M25.7634 14.7182L17.2384 31.9111M13.8148 15.111L17.2317 27.411M11.0002 19.125H26.1384L22.8945 34H14.2441L11.0002 19.125Z" stroke="black" stroke-width="1.2"/>
</svg>
