<svg width="38" height="36" viewBox="0 0 38 36" fill="none" xmlns="http://www.w3.org/2000/svg">
<path fill-rule="evenodd" clip-rule="evenodd" d="M7.19988 14.2371V27.8371H30.7999V14.2371H7.19988ZM5.99988 29.0371H31.9999V13.0371H5.99988V29.0371Z" fill="black"/>
<path fill-rule="evenodd" clip-rule="evenodd" d="M9.75947 9.0708C9.75947 8.62897 9.4013 8.2708 8.95947 8.2708C8.51764 8.2708 8.15947 8.62897 8.15947 9.0708C8.15947 9.51263 8.51764 9.8708 8.95947 9.8708C9.4013 9.8708 9.75947 9.51263 9.75947 9.0708ZM10.9595 9.0708C10.9595 7.96623 10.064 7.0708 8.95947 7.0708C7.8549 7.0708 6.95947 7.96623 6.95947 9.0708C6.95947 10.1754 7.8549 11.0708 8.95947 11.0708C10.064 11.0708 10.9595 10.1754 10.9595 9.0708Z" fill="black"/>
<path fill-rule="evenodd" clip-rule="evenodd" d="M9.84041 33.0708C9.84041 32.629 9.48223 32.2708 9.04041 32.2708C8.59858 32.2708 8.24041 32.629 8.24041 33.0708C8.24041 33.5126 8.59858 33.8708 9.04041 33.8708C9.48223 33.8708 9.84041 33.5126 9.84041 33.0708ZM11.0404 33.0708C11.0404 31.9662 10.145 31.0708 9.04041 31.0708C7.93584 31.0708 7.04041 31.9662 7.04041 33.0708C7.04041 34.1754 7.93584 35.0708 9.04041 35.0708C10.145 35.0708 11.0404 34.1754 11.0404 33.0708Z" fill="black"/>
<path fill-rule="evenodd" clip-rule="evenodd" d="M36.7999 20.98C36.7999 20.5382 36.4417 20.18 35.9999 20.18C35.5581 20.18 35.1999 20.5382 35.1999 20.98C35.1999 21.4218 35.5581 21.78 35.9999 21.78C36.4417 21.78 36.7999 21.4218 36.7999 20.98ZM37.9999 20.98C37.9999 19.8754 37.1044 18.98 35.9999 18.98C34.8953 18.98 33.9999 19.8754 33.9999 20.98C33.9999 22.0845 34.8953 22.98 35.9999 22.98C37.1044 22.98 37.9999 22.0845 37.9999 20.98Z" fill="black"/>
<path fill-rule="evenodd" clip-rule="evenodd" d="M2.8 21.0942C2.8 20.6524 2.44183 20.2942 2 20.2942C1.55817 20.2942 1.2 20.6524 1.2 21.0942C1.2 21.5361 1.55817 21.8942 2 21.8942C2.44183 21.8942 2.8 21.5361 2.8 21.0942ZM4 21.0942C4 19.9897 3.10457 19.0942 2 19.0942C0.895431 19.0942 0 19.9897 0 21.0942C0 22.1988 0.895431 23.0942 2 23.0942C3.10457 23.0942 4 22.1988 4 21.0942Z" fill="black"/>
<path fill-rule="evenodd" clip-rule="evenodd" d="M16.7595 9.04736C16.7595 8.60554 16.4013 8.24736 15.9595 8.24736C15.5176 8.24736 15.1595 8.60554 15.1595 9.04736C15.1595 9.48919 15.5176 9.84736 15.9595 9.84736C16.4013 9.84736 16.7595 9.48919 16.7595 9.04736ZM17.9595 9.04736C17.9595 7.94279 17.064 7.04736 15.9595 7.04736C14.8549 7.04736 13.9595 7.94279 13.9595 9.04736C13.9595 10.1519 14.8549 11.0474 15.9595 11.0474C17.064 11.0474 17.9595 10.1519 17.9595 9.04736Z" fill="black"/>
<path fill-rule="evenodd" clip-rule="evenodd" d="M16.8404 33.0469C16.8404 32.605 16.4822 32.2469 16.0404 32.2469C15.5986 32.2469 15.2404 32.605 15.2404 33.0469C15.2404 33.4887 15.5986 33.8469 16.0404 33.8469C16.4822 33.8469 16.8404 33.4887 16.8404 33.0469ZM18.0404 33.0469C18.0404 31.9423 17.145 31.0469 16.0404 31.0469C14.9358 31.0469 14.0404 31.9423 14.0404 33.0469C14.0404 34.1514 14.9358 35.0469 16.0404 35.0469C17.145 35.0469 18.0404 34.1514 18.0404 33.0469Z" fill="black"/>
<path fill-rule="evenodd" clip-rule="evenodd" d="M23.7595 9.02344C23.7595 8.58161 23.4013 8.22344 22.9595 8.22344C22.5176 8.22344 22.1595 8.58161 22.1595 9.02344C22.1595 9.46527 22.5176 9.82344 22.9595 9.82344C23.4013 9.82344 23.7595 9.46527 23.7595 9.02344ZM24.9595 9.02344C24.9595 7.91887 24.064 7.02344 22.9595 7.02344C21.8549 7.02344 20.9595 7.91887 20.9595 9.02344C20.9595 10.128 21.8549 11.0234 22.9595 11.0234C24.064 11.0234 24.9595 10.128 24.9595 9.02344Z" fill="black"/>
<path fill-rule="evenodd" clip-rule="evenodd" d="M23.8403 33.0234C23.8403 32.5816 23.4821 32.2234 23.0403 32.2234C22.5985 32.2234 22.2403 32.5816 22.2403 33.0234C22.2403 33.4653 22.5985 33.8234 23.0403 33.8234C23.4821 33.8234 23.8403 33.4653 23.8403 33.0234ZM25.0403 33.0234C25.0403 31.9189 24.1449 31.0234 23.0403 31.0234C21.9357 31.0234 21.0403 31.9189 21.0403 33.0234C21.0403 34.128 21.9357 35.0234 23.0403 35.0234C24.1449 35.0234 25.0403 34.128 25.0403 33.0234Z" fill="black"/>
<path fill-rule="evenodd" clip-rule="evenodd" d="M30.7593 9C30.7593 8.55817 30.4012 8.2 29.9594 8.2C29.5175 8.2 29.1594 8.55817 29.1594 9C29.1594 9.44183 29.5175 9.8 29.9594 9.8C30.4012 9.8 30.7593 9.44183 30.7593 9ZM31.9594 9C31.9594 7.89543 31.0639 7 29.9594 7C28.8548 7 27.9594 7.89543 27.9594 9C27.9594 10.1046 28.8548 11 29.9594 11C31.0639 11 31.9594 10.1046 31.9594 9Z" fill="black"/>
<path fill-rule="evenodd" clip-rule="evenodd" d="M30.8403 33C30.8403 32.5582 30.4821 32.2 30.0403 32.2C29.5985 32.2 29.2403 32.5582 29.2403 33C29.2403 33.4418 29.5985 33.8 30.0403 33.8C30.4821 33.8 30.8403 33.4418 30.8403 33ZM32.0403 33C32.0403 31.8954 31.1449 31 30.0403 31C28.9357 31 28.0403 31.8954 28.0403 33C28.0403 34.1046 28.9357 35 30.0403 35C31.1449 35 32.0403 34.1046 32.0403 33Z" fill="black"/>
</svg>
