<svg width="38" height="75" viewBox="0 0 38 75" fill="none" xmlns="http://www.w3.org/2000/svg">
<path fill-rule="evenodd" clip-rule="evenodd" d="M7.19988 53.2371V66.8371H30.7999V53.2371H7.19988ZM5.99988 68.0371H31.9999V52.0371H5.99988V68.0371Z" fill="black"/>
<path fill-rule="evenodd" clip-rule="evenodd" d="M9.75947 48.0708C9.75947 47.629 9.4013 47.2708 8.95947 47.2708C8.51764 47.2708 8.15947 47.629 8.15947 48.0708C8.15947 48.5126 8.51764 48.8708 8.95947 48.8708C9.4013 48.8708 9.75947 48.5126 9.75947 48.0708ZM10.9595 48.0708C10.9595 46.9662 10.064 46.0708 8.95947 46.0708C7.8549 46.0708 6.95947 46.9662 6.95947 48.0708C6.95947 49.1754 7.8549 50.0708 8.95947 50.0708C10.064 50.0708 10.9595 49.1754 10.9595 48.0708Z" fill="black"/>
<path fill-rule="evenodd" clip-rule="evenodd" d="M9.84041 72.0708C9.84041 71.629 9.48223 71.2708 9.04041 71.2708C8.59858 71.2708 8.24041 71.629 8.24041 72.0708C8.24041 72.5126 8.59858 72.8708 9.04041 72.8708C9.48223 72.8708 9.84041 72.5126 9.84041 72.0708ZM11.0404 72.0708C11.0404 70.9662 10.145 70.0708 9.04041 70.0708C7.93584 70.0708 7.04041 70.9662 7.04041 72.0708C7.04041 73.1754 7.93584 74.0708 9.04041 74.0708C10.145 74.0708 11.0404 73.1754 11.0404 72.0708Z" fill="black"/>
<path fill-rule="evenodd" clip-rule="evenodd" d="M36.7999 59.98C36.7999 59.5382 36.4417 59.18 35.9999 59.18C35.5581 59.18 35.1999 59.5382 35.1999 59.98C35.1999 60.4218 35.5581 60.78 35.9999 60.78C36.4417 60.78 36.7999 60.4218 36.7999 59.98ZM37.9999 59.98C37.9999 58.8754 37.1044 57.98 35.9999 57.98C34.8953 57.98 33.9999 58.8754 33.9999 59.98C33.9999 61.0845 34.8953 61.98 35.9999 61.98C37.1044 61.98 37.9999 61.0845 37.9999 59.98Z" fill="black"/>
<path fill-rule="evenodd" clip-rule="evenodd" d="M2.8 60.0942C2.8 59.6524 2.44183 59.2942 2 59.2942C1.55817 59.2942 1.2 59.6524 1.2 60.0942C1.2 60.5361 1.55817 60.8942 2 60.8942C2.44183 60.8942 2.8 60.5361 2.8 60.0942ZM4 60.0942C4 58.9897 3.10457 58.0942 2 58.0942C0.895431 58.0942 0 58.9897 0 60.0942C0 61.1988 0.895431 62.0942 2 62.0942C3.10457 62.0942 4 61.1988 4 60.0942Z" fill="black"/>
<path fill-rule="evenodd" clip-rule="evenodd" d="M16.7595 48.0474C16.7595 47.6055 16.4013 47.2474 15.9595 47.2474C15.5176 47.2474 15.1595 47.6055 15.1595 48.0474C15.1595 48.4892 15.5176 48.8474 15.9595 48.8474C16.4013 48.8474 16.7595 48.4892 16.7595 48.0474ZM17.9595 48.0474C17.9595 46.9428 17.064 46.0474 15.9595 46.0474C14.8549 46.0474 13.9595 46.9428 13.9595 48.0474C13.9595 49.1519 14.8549 50.0474 15.9595 50.0474C17.064 50.0474 17.9595 49.1519 17.9595 48.0474Z" fill="black"/>
<path fill-rule="evenodd" clip-rule="evenodd" d="M16.8404 72.0469C16.8404 71.605 16.4822 71.2469 16.0404 71.2469C15.5986 71.2469 15.2404 71.605 15.2404 72.0469C15.2404 72.4887 15.5986 72.8469 16.0404 72.8469C16.4822 72.8469 16.8404 72.4887 16.8404 72.0469ZM18.0404 72.0469C18.0404 70.9423 17.145 70.0469 16.0404 70.0469C14.9358 70.0469 14.0404 70.9423 14.0404 72.0469C14.0404 73.1514 14.9358 74.0469 16.0404 74.0469C17.145 74.0469 18.0404 73.1514 18.0404 72.0469Z" fill="black"/>
<path fill-rule="evenodd" clip-rule="evenodd" d="M23.7595 48.0234C23.7595 47.5816 23.4013 47.2234 22.9595 47.2234C22.5176 47.2234 22.1595 47.5816 22.1595 48.0234C22.1595 48.4653 22.5176 48.8234 22.9595 48.8234C23.4013 48.8234 23.7595 48.4653 23.7595 48.0234ZM24.9595 48.0234C24.9595 46.9189 24.064 46.0234 22.9595 46.0234C21.8549 46.0234 20.9595 46.9189 20.9595 48.0234C20.9595 49.128 21.8549 50.0234 22.9595 50.0234C24.064 50.0234 24.9595 49.128 24.9595 48.0234Z" fill="black"/>
<path fill-rule="evenodd" clip-rule="evenodd" d="M23.8403 72.0234C23.8403 71.5816 23.4821 71.2234 23.0403 71.2234C22.5985 71.2234 22.2403 71.5816 22.2403 72.0234C22.2403 72.4653 22.5985 72.8234 23.0403 72.8234C23.4821 72.8234 23.8403 72.4653 23.8403 72.0234ZM25.0403 72.0234C25.0403 70.9189 24.1449 70.0234 23.0403 70.0234C21.9357 70.0234 21.0403 70.9189 21.0403 72.0234C21.0403 73.128 21.9357 74.0234 23.0403 74.0234C24.1449 74.0234 25.0403 73.128 25.0403 72.0234Z" fill="black"/>
<path fill-rule="evenodd" clip-rule="evenodd" d="M30.7593 48C30.7593 47.5582 30.4012 47.2 29.9594 47.2C29.5175 47.2 29.1594 47.5582 29.1594 48C29.1594 48.4418 29.5175 48.8 29.9594 48.8C30.4012 48.8 30.7593 48.4418 30.7593 48ZM31.9594 48C31.9594 46.8954 31.0639 46 29.9594 46C28.8548 46 27.9594 46.8954 27.9594 48C27.9594 49.1046 28.8548 50 29.9594 50C31.0639 50 31.9594 49.1046 31.9594 48Z" fill="black"/>
<path fill-rule="evenodd" clip-rule="evenodd" d="M30.8403 72C30.8403 71.5582 30.4821 71.2 30.0403 71.2C29.5985 71.2 29.2403 71.5582 29.2403 72C29.2403 72.4418 29.5985 72.8 30.0403 72.8C30.4821 72.8 30.8403 72.4418 30.8403 72ZM32.0403 72C32.0403 70.8954 31.1449 70 30.0403 70C28.9357 70 28.0403 70.8954 28.0403 72C28.0403 73.1046 28.9357 74 30.0403 74C31.1449 74 32.0403 73.1046 32.0403 72Z" fill="black"/>
</svg>
