<svg width="76" height="108" viewBox="0 0 76 108" fill="none" xmlns="http://www.w3.org/2000/svg">
<circle cx="40.5" cy="53.5" r="12.5" stroke="white" stroke-width="2"/>
<path d="M41.75 45.3036C41.75 45.2993 41.75 45.2994 41.7492 45.3043C41.7469 45.3195 41.7375 45.3817 41.699 45.5046C41.6528 45.6521 41.5808 45.8374 41.4839 46.0565C41.2901 46.4946 41.0248 47.0048 40.747 47.5146C40.6441 47.7032 40.5466 47.8794 40.4531 48.0469C40.2926 47.7598 40.1329 47.4655 39.983 47.1742C39.757 46.7347 39.5647 46.3229 39.431 45.9707C39.2876 45.5928 39.25 45.3799 39.25 45.3036C39.25 44.9298 39.6595 44.375 40.5 44.375C41.3405 44.375 41.75 44.9298 41.75 45.3036Z" stroke="white" stroke-width="2"/>
<path d="M41.75 61.6964C41.75 61.7007 41.75 61.7006 41.7492 61.6957C41.7469 61.6805 41.7375 61.6183 41.699 61.4954C41.6528 61.3479 41.5808 61.1626 41.4839 60.9435C41.2901 60.5054 41.0248 59.9952 40.747 59.4854C40.6441 59.2968 40.5466 59.1206 40.4531 58.9531C40.2926 59.2402 40.1329 59.5345 39.983 59.8258C39.757 60.2653 39.5647 60.6771 39.431 61.0293C39.2876 61.4072 39.25 61.6201 39.25 61.6964C39.25 62.0702 39.6595 62.625 40.5 62.625C41.3405 62.625 41.75 62.0702 41.75 61.6964Z" stroke="white" stroke-width="2"/>
<path d="M35.7753 46.6402C35.7723 46.6372 35.7724 46.6373 35.7753 46.6413C35.7845 46.6537 35.8217 46.7043 35.8814 46.8184C35.9531 46.9554 36.0332 47.1373 36.1196 47.3608C36.2924 47.8076 36.4655 48.356 36.6295 48.9129C36.6902 49.119 36.7458 49.3125 36.7982 49.4971C36.4816 49.4076 36.1606 49.3125 35.8487 49.2124C35.378 49.0614 34.9509 48.9063 34.6073 48.7517C34.2387 48.5859 34.0616 48.462 34.0076 48.408C33.7433 48.1437 33.6405 47.4619 34.2349 46.8675C34.8292 46.2732 35.5111 46.3759 35.7753 46.6402Z" stroke="white" stroke-width="2"/>
<path d="M46.9925 58.5919C46.9955 58.595 46.9955 58.5949 46.9915 58.592C46.9791 58.5828 46.9284 58.5455 46.8143 58.4859C46.6773 58.4142 46.4954 58.334 46.272 58.2477C45.8251 58.0749 45.2768 57.9018 44.7198 57.7378C44.5137 57.6771 44.3202 57.6215 44.1357 57.5691C44.2252 57.8857 44.3203 58.2067 44.4203 58.5186C44.5713 58.9893 44.7265 59.4164 44.881 59.7599C45.0469 60.1286 45.1708 60.3057 45.2247 60.3597C45.489 60.624 46.1709 60.7268 46.7652 60.1324C47.3596 59.5381 47.2568 58.8562 46.9925 58.5919Z" stroke="white" stroke-width="2"/>
<path d="M32.3036 52.25C32.2993 52.25 32.2994 52.25 32.3043 52.2508C32.3195 52.2531 32.3817 52.2625 32.5046 52.301C32.6521 52.3472 32.8374 52.4192 33.0565 52.5161C33.4946 52.7099 34.0048 52.9752 34.5146 53.253C34.7032 53.3559 34.8794 53.4534 35.0469 53.5469C34.7598 53.7074 34.4655 53.8671 34.1742 54.017C33.7347 54.243 33.3229 54.4353 32.9707 54.569C32.5928 54.7124 32.3799 54.75 32.3036 54.75C31.9298 54.75 31.375 54.3405 31.375 53.5C31.375 52.6595 31.9298 52.25 32.3036 52.25Z" stroke="white" stroke-width="2"/>
<path d="M48.6964 52.25C48.7007 52.25 48.7006 52.25 48.6957 52.2508C48.6805 52.2531 48.6183 52.2625 48.4954 52.301C48.3479 52.3472 48.1626 52.4192 47.9435 52.5161C47.5054 52.7099 46.9952 52.9752 46.4854 53.253C46.2968 53.3559 46.1206 53.4534 45.9531 53.5469C46.2402 53.7074 46.5345 53.8671 46.8258 54.017C47.2653 54.243 47.6771 54.4353 48.0293 54.569C48.4072 54.7124 48.6201 54.75 48.6964 54.75C49.0702 54.75 49.625 54.3405 49.625 53.5C49.625 52.6595 49.0702 52.25 48.6964 52.25Z" stroke="white" stroke-width="2"/>
<path d="M33.6298 58.2135C33.6268 58.2165 33.6268 58.2164 33.6308 58.2135C33.6433 58.2043 33.6939 58.1671 33.808 58.1074C33.945 58.0357 34.1269 57.9556 34.3503 57.8692C34.7972 57.6964 35.3455 57.5233 35.9025 57.3593C36.1086 57.2986 36.3021 57.243 36.4867 57.1906C36.3971 57.5072 36.302 57.8282 36.202 58.1401C36.051 58.6108 35.8958 59.0379 35.7413 59.3815C35.5754 59.7501 35.4516 59.9272 35.3976 59.9812C35.1333 60.2455 34.4514 60.3483 33.8571 59.7539C33.2627 59.1596 33.3655 58.4777 33.6298 58.2135Z" stroke="white" stroke-width="2"/>
<path d="M45.6023 47.0187C45.6054 47.0157 45.6053 47.0158 45.6024 47.0197C45.5932 47.0322 45.556 47.0828 45.4963 47.1969C45.4246 47.3339 45.3445 47.5158 45.2581 47.7393C45.0853 48.1861 44.9122 48.7345 44.7482 49.2914C44.6875 49.4975 44.6319 49.691 44.5795 49.8756C44.8961 49.7861 45.2171 49.691 45.529 49.5909C45.9997 49.4399 46.4268 49.2847 46.7704 49.1302C47.139 48.9644 47.3161 48.8405 47.3701 48.7865C47.6344 48.5222 47.7372 47.8403 47.1428 47.246C46.5485 46.6517 45.8666 46.7544 45.6023 47.0187Z" stroke="white" stroke-width="2"/>
</svg>
