<svg width="76" height="108" viewBox="0 0 76 108" fill="none" xmlns="http://www.w3.org/2000/svg">
<mask id="path-1-inside-1" fill="white">
<path fill-rule="evenodd" clip-rule="evenodd" d="M27 47.881C27 48.8011 27.3019 49.6718 27.84 50.4474V67.2042H48.0033V50.5688C48.5356 49.7908 48.8436 48.8691 48.8436 47.881C48.8436 45.097 46.3986 42.8402 43.3827 42.8402C42.4722 42.8402 41.6137 43.0459 40.8589 43.4096C39.3907 42.5308 37.4846 42 35.4014 42C30.7614 42 27 44.633 27 47.881Z"/>
</mask>
<path d="M27.84 50.4474H29.84V49.8214L29.4832 49.3071L27.84 50.4474ZM27.84 67.2042H25.84V69.2042H27.84V67.2042ZM48.0033 67.2042V69.2042H50.0033V67.2042H48.0033ZM48.0033 50.5688L46.3527 49.4395L46.0033 49.9501V50.5688H48.0033ZM40.8589 43.4096L39.8316 45.1257L40.7563 45.6792L41.7272 45.2113L40.8589 43.4096ZM29.4832 49.3071C29.1488 48.8253 29 48.3462 29 47.881H25C25 49.256 25.4549 50.5184 26.1969 51.5876L29.4832 49.3071ZM29.84 67.2042V50.4474H25.84V67.2042H29.84ZM48.0033 65.2042H27.84V69.2042H48.0033V65.2042ZM46.0033 50.5688V67.2042H50.0033V50.5688H46.0033ZM46.8436 47.881C46.8436 48.4441 46.6701 48.9755 46.3527 49.4395L49.654 51.6981C50.401 50.6061 50.8436 49.2942 50.8436 47.881H46.8436ZM43.3827 44.8402C45.4478 44.8402 46.8436 46.3493 46.8436 47.881H50.8436C50.8436 43.8447 47.3495 40.8402 43.3827 40.8402V44.8402ZM41.7272 45.2113C42.213 44.9772 42.7749 44.8402 43.3827 44.8402V40.8402C42.1695 40.8402 41.0144 41.1145 39.9906 41.608L41.7272 45.2113ZM35.4014 44C37.1569 44 38.7019 44.4494 39.8316 45.1257L41.8861 41.6936C40.0796 40.6121 37.8123 40 35.4014 40V44ZM29 47.881C29 47.0887 29.4561 46.167 30.6076 45.361C31.7528 44.5593 33.4414 44 35.4014 44V40C32.7214 40 30.2093 40.7572 28.3138 42.084C26.4246 43.4065 25 45.4252 25 47.881H29Z" fill="white" mask="url(#path-1-inside-1)"/>
</svg>
