<svg width="76" height="108" viewBox="0 0 76 108" fill="none" xmlns="http://www.w3.org/2000/svg">
<path d="M49.7933 52.2961C49.7933 57.5412 44.6908 61.7933 38.3966 61.7933C32.1025 61.7933 27 57.5412 27 52.2961" stroke="white" stroke-width="2"/>
<line x1="39.3966" y1="61.7933" x2="39.3966" y2="67.4916" stroke="white" stroke-width="2"/>
<line x1="33.6481" y1="66.4916" x2="44.095" y2="66.4916" stroke="white" stroke-width="2"/>
<line x1="27" y1="52.2458" x2="49.7933" y2="52.2458" stroke="white" stroke-width="2"/>
<circle cx="37.9218" cy="43.2737" r="1.3743" stroke="white" stroke-width="2"/>
<path d="M29.2459 52.2961C28.6099 50.8749 28.4063 47.8357 32.6807 47.0486C32.8079 45.8461 33.7494 43.5066 36.4972 43.7689" stroke="white" stroke-width="2"/>
<path d="M39.3463 42.2875C40.0467 41.8005 41.2372 40.4611 40.3968 39C42.2644 39.8523 45.5793 42.5797 43.8985 46.6708C45.5327 47.1579 48.5908 49.1547 47.7504 53.2458" stroke="white" stroke-width="2"/>
</svg>
