<svg width="76" height="108" viewBox="0 0 76 108" fill="none" xmlns="http://www.w3.org/2000/svg">
<mask id="path-1-inside-1" fill="white">
<path fill-rule="evenodd" clip-rule="evenodd" d="M37.5001 64.101C35.854 65.6033 33.6639 66.5195 31.2597 66.5195C26.1457 66.5195 22 62.3738 22 57.2597C22 52.1457 26.1457 48 31.2597 48C33.6639 48 35.854 48.9162 37.5001 50.4185C39.1461 48.9162 41.3362 48 43.7404 48C48.8544 48 53.0001 52.1457 53.0001 57.2597C53.0001 62.3738 48.8544 66.5195 43.7404 66.5195C41.3362 66.5195 39.1461 65.6033 37.5001 64.101Z"/>
</mask>
<path d="M37.5001 64.101L38.8483 62.6237L37.5001 61.3932L36.1518 62.6237L37.5001 64.101ZM37.5001 50.4185L36.1518 51.8958L37.5001 53.1263L38.8483 51.8958L37.5001 50.4185ZM36.1518 62.6237C34.8598 63.8029 33.1458 64.5195 31.2597 64.5195V68.5195C34.182 68.5195 36.8482 67.4036 38.8483 65.5782L36.1518 62.6237ZM31.2597 64.5195C27.2503 64.5195 24 61.2692 24 57.2597H20C20 63.4783 25.0412 68.5195 31.2597 68.5195V64.5195ZM24 57.2597C24 53.2503 27.2503 50 31.2597 50V46C25.0412 46 20 51.0412 20 57.2597H24ZM31.2597 50C33.1458 50 34.8598 50.7166 36.1518 51.8958L38.8483 48.9413C36.8482 47.1159 34.182 46 31.2597 46V50ZM38.8483 51.8958C40.1403 50.7166 41.8543 50 43.7404 50V46C40.8181 46 38.1519 47.1159 36.1518 48.9413L38.8483 51.8958ZM43.7404 50C47.7498 50 51.0001 53.2503 51.0001 57.2597H55.0001C55.0001 51.0412 49.9589 46 43.7404 46V50ZM51.0001 57.2597C51.0001 61.2692 47.7498 64.5195 43.7404 64.5195V68.5195C49.9589 68.5195 55.0001 63.4783 55.0001 57.2597H51.0001ZM43.7404 64.5195C41.8543 64.5195 40.1403 63.8029 38.8483 62.6237L36.1518 65.5782C38.1519 67.4036 40.8181 68.5195 43.7404 68.5195V64.5195Z" fill="white" mask="url(#path-1-inside-1)"/>
<circle cx="37.5" cy="57.8636" r="4.03247" stroke="white" stroke-width="2"/>
<line x1="29" y1="56.6624" x2="33" y2="56.6624" stroke="white" stroke-width="2"/>
<line x1="42" y1="56.6624" x2="46" y2="56.6624" stroke="white" stroke-width="2"/>
<path d="M44.9471 56C45.4607 62.6579 42.1802 67 37.5 67C32.8198 67 29.5393 63.2368 30.0529 56" stroke="white" stroke-width="2"/>
</svg>
