<svg width="76" height="75" viewBox="0 0 76 75" fill="none" xmlns="http://www.w3.org/2000/svg">
<g clip-path="url(#clip0)">
<path fill-rule="evenodd" clip-rule="evenodd" d="M26.0925 5L31.6254 6.05712L37.1637 8.9405V12.1918L21.9722 6.54632L26.0925 5ZM26.2159 6.44565L25.9648 6.53989L35.7669 10.1826V9.78807L31.1621 7.39068L26.2159 6.44565ZM48.6286 5.52828L52.7645 7.51619L39.5662 11.4398V8.91824L44.5632 6.60179L48.6286 5.52828ZM45.0389 7.92086L42.4244 9.13289L48.8991 7.20808L48.4875 7.01024L45.0389 7.92086Z" fill="black"/>
<path fill-rule="evenodd" clip-rule="evenodd" d="M36.9418 37.0303C35.0567 37.3162 33.0648 37.8005 31.8105 38.1589L31.4268 36.8158C32.7225 36.4456 34.7742 35.9463 36.7324 35.6493C37.7107 35.5009 38.683 35.4003 39.5346 35.3955C40.359 35.3908 41.1741 35.4734 41.7668 35.7698L41.1421 37.0191C40.8605 36.8783 40.3277 36.7879 39.5425 36.7923C38.7843 36.7966 37.8851 36.8872 36.9418 37.0303Z" fill="black"/>
<path d="M46.9186 15.6604C46.9186 15.0568 45.8828 13.9905 45.2793 13.9905C44.6757 13.9905 44.0163 15.5726 44.0163 16.1762C44.0163 16.7798 45.2221 16.7533 45.8257 16.7533C46.4293 16.7533 46.9186 16.264 46.9186 15.6604Z" fill="black"/>
<path d="M32.1648 15.0834C32.1648 14.4798 30.5826 14.5369 29.9791 14.5369C29.9791 14.5369 29.4326 15.5726 29.4326 16.1762C29.4326 16.7798 30.6384 16.7533 31.242 16.7533C31.8456 16.7533 32.1648 15.6869 32.1648 15.0834Z" fill="black"/>
</g>
<defs>
<clipPath id="clip0">
<rect width="76" height="75" fill="white"/>
</clipPath>
</defs>
</svg>
