<svg width="76" height="75" viewBox="0 0 76 75" fill="none" xmlns="http://www.w3.org/2000/svg">
<g clip-path="url(#clip0)">
<path fill-rule="evenodd" clip-rule="evenodd" d="M44.1892 17.6901C44.6911 18.192 45.4633 18.5052 46.5434 18.5052C47.6335 18.5052 48.7267 18.1845 49.5297 17.618C50.3214 17.0594 50.8056 16.2871 50.8056 15.3359H52.117C52.117 16.799 51.3493 17.9392 50.2857 18.6896C49.2333 19.432 47.8675 19.8166 46.5434 19.8166C45.2092 19.8166 44.0688 19.4245 43.2618 18.6174C42.4548 17.8104 42.0626 16.6701 42.0626 15.3359H43.374C43.374 16.416 43.6872 17.1882 44.1892 17.6901Z" fill="black"/>
<path fill-rule="evenodd" clip-rule="evenodd" d="M31.9551 17.7622C31.4532 18.2642 31.2304 18.5052 30.1503 18.5052C29.0602 18.5052 27.4471 18.0001 26.6441 17.4336C25.8524 16.875 25.8881 16.2871 25.8881 15.3359H24.5767C24.5767 16.799 24.8245 17.7548 25.8881 18.5052C26.9405 19.2477 28.8261 19.8166 30.1503 19.8166C31.4845 19.8166 32.0754 19.4966 32.8825 18.6896C33.6895 17.8825 34.6311 16.6701 34.6311 15.3359H33.3196C33.3196 16.416 32.457 17.2603 31.9551 17.7622Z" fill="black"/>
<path fill-rule="evenodd" clip-rule="evenodd" d="M33.816 34.4611C33.816 36.5133 36.2947 36.6469 38.3468 36.6469C40.399 36.6469 40.7512 36.5133 40.7512 34.4611H42.0626C42.0626 37.2376 41.6697 37.7397 38.8933 37.7397C36.1168 37.7397 32.5045 37.2376 32.5045 34.4611H33.816Z" fill="black"/>
<path fill-rule="evenodd" clip-rule="evenodd" d="M37.4061 3V8.38421H23L25.9784 5.40584L37.4061 3ZM26.6725 6.68715L26.3722 6.98739H36.0093V4.7215L26.6725 6.68715ZM39.9766 3.5962L51.8508 5.37734L56.3454 8.18642L55.8765 9.47006L52.084 8.92829L39.9766 8.35174V3.5962ZM41.3734 5.21817V7.01986L52.2163 7.53619L52.8038 7.62011L51.3566 6.71565L41.3734 5.21817Z" fill="black"/>
</g>
<defs>
<clipPath id="clip0">
<rect width="76" height="75" fill="white"/>
</clipPath>
</defs>
</svg>
