<svg width="76" height="75" viewBox="0 0 76 75" fill="none" xmlns="http://www.w3.org/2000/svg">
<g clip-path="url(#clip0)">
<path d="M47.122 16.2781C47.122 15.6745 46.0863 14.6082 45.4827 14.6082C44.8791 14.6082 44.2198 16.1903 44.2198 16.7939C44.2198 17.3975 45.4256 17.371 46.0292 17.371C46.6327 17.371 47.122 16.8817 47.122 16.2781Z" fill="black"/>
<path fill-rule="evenodd" clip-rule="evenodd" d="M52.5864 29.174C54.2764 29.174 55.865 27.2269 55.865 25.5369C55.865 23.8469 54.2764 23.0539 52.5864 23.0539C50.8964 23.0539 49.3078 24.4239 49.3078 26.1139C49.3078 27.8039 50.8964 29.174 52.5864 29.174ZM52.5864 30.4854C55.0007 30.4854 56.9579 27.9512 56.9579 25.5369C56.9579 23.1226 55.0007 21.7425 52.5864 21.7425C50.1721 21.7425 48.2149 23.6996 48.2149 26.1139C48.2149 28.5282 50.1721 30.4854 52.5864 30.4854Z" fill="black"/>
<path fill-rule="evenodd" clip-rule="evenodd" d="M24.7182 29.2526C26.4082 29.2526 27.9968 27.8826 27.9968 26.1926C27.9968 24.5026 26.4082 22.3369 24.7182 22.3369C23.0282 22.3369 21.4396 24.4239 21.4396 26.1139C21.4396 27.8039 23.0282 29.2526 24.7182 29.2526ZM24.7182 30.5641C27.1325 30.5641 29.0897 28.6069 29.0897 26.1926C29.0897 23.7783 27.1325 21.244 24.7182 21.244C22.3039 21.244 20.3467 23.7783 20.3467 26.1926C20.3467 28.6069 22.3039 30.5641 24.7182 30.5641Z" fill="black"/>
<path d="M32.3683 15.701C32.3683 15.0974 30.7861 15.1546 30.1825 15.1546C30.1825 15.1546 29.6361 16.1903 29.6361 16.7939C29.6361 17.3975 30.8419 17.371 31.4455 17.371C32.0491 17.371 32.3683 16.3046 32.3683 15.701Z" fill="black"/>
<path fill-rule="evenodd" clip-rule="evenodd" d="M41.6572 35.3727L35.1 34.2798L35.3296 32.902L41.8868 33.9948L41.6572 35.3727Z" fill="black"/>
<path fill-rule="evenodd" clip-rule="evenodd" d="M37.9851 1V5.79674L23.8566 9.22683L23.4087 6.55658L25.502 5.16105L37.9851 1ZM26.1212 6.42703L24.9358 7.21724L24.9858 7.51529L36.5883 4.69847V2.93798L26.1212 6.42703ZM38.934 3.13702L46.816 6.77485L53.2853 8.53921V11.5841L38.13 7.96114L38.934 3.13702ZM40.0109 5.17244L39.722 6.90555L51.8885 9.81404V9.60609L46.3363 8.09184L40.0109 5.17244Z" fill="black"/>
</g>
<defs>
<clipPath id="clip0">
<rect width="76" height="75" fill="white"/>
</clipPath>
</defs>
</svg>
