<svg width="76" height="75" viewBox="0 0 76 75" fill="none" xmlns="http://www.w3.org/2000/svg">
<g clip-path="url(#clip0)">
<path fill-rule="evenodd" clip-rule="evenodd" d="M27.4418 30.1997C27.4418 36.4769 32.4007 39.3576 38.6779 39.3576C44.9551 39.3576 49.2993 37.5698 49.2993 31.2926H50.6107C50.6107 38.2941 45.6794 40.6691 38.6779 40.6691C31.6764 40.6691 26.1304 37.2012 26.1304 30.1997H27.4418Z" fill="black"/>
<path d="M47.6603 17.1159C47.6603 16.5123 46.6245 15.4459 46.021 15.4459C45.4174 15.4459 44.758 17.0281 44.758 17.6317C44.758 18.2352 45.9638 18.2087 46.5674 18.2087C47.171 18.2087 47.6603 17.7194 47.6603 17.1159Z" fill="black"/>
<path d="M32.9065 16.5388C32.9065 15.9352 31.3243 15.9924 30.7208 15.9924C30.7208 15.9924 30.1743 17.0281 30.1743 17.6317C30.1743 18.2352 31.3801 18.2087 31.9837 18.2087C32.5873 18.2087 32.9065 17.1424 32.9065 16.5388Z" fill="black"/>
<path fill-rule="evenodd" clip-rule="evenodd" d="M39.885 8.48293L39.9373 7.10126L47.7599 6.2794L54.4495 9.16607L54.9345 12.76L45.7644 9.5546L39.885 8.48293ZM44.9249 7.98175L46.1223 8.2L53.2456 10.6899L53.1708 10.1356L47.5422 7.70677L44.9249 7.98175Z" fill="black"/>
<path fill-rule="evenodd" clip-rule="evenodd" d="M38.0549 7.36244L37.8359 6.00469L30.8714 5.89368L24.0119 9.21291L24.0119 13.9992L32.6461 9.24946L38.0549 7.36244ZM33.8826 7.33867L32.0754 7.96917L25.4087 11.6366L25.4087 10.0888L31.181 7.29561L33.8826 7.33867Z" fill="black"/>
</g>
<defs>
<clipPath id="clip0">
<rect width="76" height="75" fill="white"/>
</clipPath>
</defs>
</svg>
