<svg width="76" height="75" viewBox="0 0 76 75" fill="none" xmlns="http://www.w3.org/2000/svg">
<g clip-path="url(#clip0)">
<path fill-rule="evenodd" clip-rule="evenodd" d="M30.5491 28.1541C30.5491 34.7617 33.6325 37.6419 38.1162 37.6419C42.5999 37.6419 46.1615 35.9121 46.1615 29.3045H47.0982C47.0982 36.6745 43.1172 39.0224 38.1162 39.0224C33.1151 39.0224 29.6123 35.5241 29.6123 28.1541H30.5491Z" fill="black"/>
<path fill-rule="evenodd" clip-rule="evenodd" d="M43.4688 17.3407C43.4701 17.3482 43.4739 17.3729 43.4642 17.4051C43.4595 17.4207 43.4545 17.4279 43.4545 17.4279C43.4544 17.4279 43.4619 17.4166 43.4866 17.3963C43.5878 17.3135 43.8343 17.2015 44.2344 17.1646C45.0147 17.0926 46.0914 17.3353 46.9547 18.1316L47.9018 17.1049C46.7208 16.0155 45.2422 15.6689 44.1061 15.7737C43.548 15.8252 42.9959 15.993 42.602 16.3153C42.3991 16.4814 42.2159 16.708 42.1274 17C42.036 17.3017 42.0648 17.6119 42.188 17.8961L43.4688 17.3407Z" fill="black"/>
<path fill-rule="evenodd" clip-rule="evenodd" d="M30.7676 17.1978C30.1463 17.3371 29.6171 17.7727 29.3132 18.0964L28.2949 17.1403C28.6808 16.7293 29.445 16.0629 30.462 15.8349C31.5479 15.5914 32.7843 15.8782 33.9693 17.1403L32.951 18.0964C32.0666 17.1544 31.3198 17.074 30.7676 17.1978Z" fill="black"/>
<path fill-rule="evenodd" clip-rule="evenodd" d="M40.2592 6.65186L40.5087 5.28289L48.3462 6.0155L51.7186 9.75834L50.9222 10.8667L42.7932 7.34603L40.2592 6.65186ZM45.9598 7.19534L48.5334 8.30994L47.6734 7.35551L45.9598 7.19534Z" fill="black"/>
<path fill-rule="evenodd" clip-rule="evenodd" d="M37.1676 6.96101L36.9521 5.59828L30.3088 5.59828L23.717 10.7692L24.4238 11.9604L32.6415 8.42948L37.1676 6.96101ZM32.5363 6.9951L32.1492 7.1207L28.7927 8.56288L30.7913 6.9951L32.5363 6.9951Z" fill="black"/>
<path fill-rule="evenodd" clip-rule="evenodd" d="M36.7448 30.8636C33.5403 30.4923 30.8311 29.5906 29.2852 28.7712L29.9393 27.537C31.3076 28.2623 33.8442 29.1214 36.9055 29.476C39.9603 29.8299 43.4871 29.6756 46.8552 28.4261L47.3411 29.7357C43.7148 31.081 39.9558 31.2356 36.7448 30.8636Z" fill="black"/>
</g>
<defs>
<clipPath id="clip0">
<rect width="76" height="75" fill="white"/>
</clipPath>
</defs>
</svg>
